<?xml version="1.0" encoding="UTF-8"?>
<svg width="1336px" height="616px" viewBox="0 0 1336 616" version="1.1" xmlns="http://www.w3.org/2000/svg" xmlns:xlink="http://www.w3.org/1999/xlink">
    <!-- Generator: Sketch 52.5 (67469) - http://www.bohemiancoding.com/sketch -->
    <title>Group 2</title>
    <desc>Created with Sketch.</desc>
    <g id="Page-1" stroke="none" stroke-width="1" fill="none" fill-rule="evenodd">
        <g id="About" transform="translate(-39.000000, -36.000000)">
            <g id="Group-2" transform="translate(39.000000, 36.000000)">
                <path d="M108.902344,582.513672 C38.5221354,545.124349 2.39127604,510.485677 0.509765625,478.597656 C-2.3125,430.765625 94.4296875,385.449219 201.478516,365.511719 C308.527344,345.574219 309.503906,311.431641 280.865234,249.679688 C252.226563,187.927734 239.292969,161.578125 266.242188,128.25 C293.191406,94.921875 353.306641,92.8203125 431.775391,131.917969 C510.244141,171.015625 601.236328,198.261719 635.554687,173.494141 C669.873047,148.726563 550.929687,52.8652344 590.142578,14.0800781 C616.284505,-11.7766927 668.848958,-0.0319010417 747.835938,49.3144531 C864.264323,136.155599 939.815755,202.94401 974.490234,249.679688 C1009.16471,296.415365 1044.60482,305.592448 1080.81055,277.210938 C1085.90585,259.759224 1087.33033,243.58214 1085.08398,228.679688 C1075.87568,167.591007 1046.92773,122.804688 1073.24609,88.9628906 C1090.79167,66.4016927 1124.73828,68.6842448 1175.08594,95.8105469 C1276.22396,160.07487 1329.38542,239.938802 1334.57031,335.402344 C1339.75521,430.865885 1320.17448,513.236328 1275.82812,582.513672 L108.902344,582.513672 Z" id="Path-50" fill="#FAF4FF"></path>
                <path d="M893.787109,76.8789062 C931.008464,146.794271 969.39974,176.802734 1008.96094,166.904297 C1019.68937,164.219982 1024.0549,151.762286 1024.50391,139.720703 C1025.20921,120.805456 1015.57856,97.8709099 1000.62891,76.8789062 C993.54388,66.930255 982.340755,58.7974425 967.019531,52.4804687 C941.561198,43.6940104 921.158854,43.6940104 905.8125,52.4804687 C896.664068,57.7183458 896.822937,59.5778118 893.787109,63.5292969 C891.693359,66.2545573 891.693359,70.7044271 893.787109,76.8789062 Z" id="Path-51" fill="#FAF4FF"></path>
                <g id="left-flowerwase" transform="translate(120.000000, 194.000000)">
                    <path d="M60.2128906,0.78515625 C77.8704427,3.93619792 86.6992188,19.171224 86.6992188,46.4902344 C86.6992188,87.46875 94.1972656,97.4550781 119.533203,113.923828 C144.869141,130.392578 147.878906,147.917969 124.931641,178.484375 C101.984375,209.050781 110.740234,222.246094 119.533203,242.447266 C128.326172,262.648438 141.091797,275.847656 108.498047,302.056641 C75.9042969,328.265625 32,307.4375 19.5097656,293.476563 C7.01953125,279.515625 -17.2285156,249.464844 19.5097656,234.3125 C56.2480469,219.160156 43.8398437,205.0625 16.40625,178.484375 C-1.8828125,160.765625 -1.8828125,127.051432 16.40625,77.3417969 C20.7526042,67.188151 24.1002604,54.6041667 26.4492188,39.5898437 C29.9726563,17.0683594 50.9238281,0.78515625 55.5683594,0.78515625" id="Path-5" fill="#D99AFF"></path>
                    <rect id="Rectangle" fill="#FFCE00" x="31" y="341" width="75" height="6"></rect>
                    <rect id="Rectangle" fill="#570081" x="59" y="339" width="47" height="4"></rect>
                    <path d="M32.2070312,350.623047 L105.449219,350.623047 L105.449219,366.59375 C102.72526,381.536458 90.5182292,389.007812 68.828125,389.007812 C47.1380208,389.007812 34.9309896,381.536458 32.2070312,366.59375 L32.2070312,350.623047 Z" id="Path-2" fill="#FFCE00"></path>
                    <path d="M31.25,355.113281 C31.0325521,371.364583 35.6796875,381.339193 45.1914063,385.037109" id="Path" stroke="#570081" stroke-width="2"></path>
                    <rect id="Rectangle" fill="#570081" x="67" y="123" width="3" height="218"></rect>
                    <path d="M69.1367188,184.480469 C75.8216146,170.201823 84.2675781,160.926432 94.4746094,156.654297" id="Path-3" stroke="#570081" stroke-width="2"></path>
                    <path d="M68.2109375,271.792969 C66.1627604,264.127604 60.0429687,258.337891 49.8515625,254.423828" id="Path-4" stroke="#570081" stroke-width="2"></path>
                </g>
                <g id="bag" transform="translate(835.000000, 499.000000)">
                    <path d="M37.0390625,15.4882813 C37.7161458,5.57942708 42.2617187,0.625 50.6757812,0.625 C59.0898438,0.625 63.6744792,5.57942708 64.4296875,15.4882813" id="Path-8" stroke="#570080" stroke-width="2"></path>
                    <polygon id="Path-6" stroke="#FF0D97" fill="#FF0D97" points="0.494140625 14.6210938 100.402344 14.6210938 100.402344 83.4550781 0.494140625 83.4550781"></polygon>
                    <rect id="Rectangle" fill="#FFFFFF" x="39" y="48" width="15" height="10"></rect>
                    <rect id="Rectangle" fill="#570080" x="90" y="15" width="11" height="69"></rect>
                    <path d="M0.494140625,48 L91.28125,48.6308594" id="Path-7" stroke="#570080" stroke-width="3"></path>
                </g>
                <g id="bottom-lines" transform="translate(30.000000, 582.000000)" fill="#E6BEFF">
                    <rect id="Rectangle" x="0" y="0" width="1286" height="3"></rect>
                    <rect id="Rectangle" x="496" y="15" width="137" height="3"></rect>
                    <rect id="Rectangle" x="664" y="15" width="436" height="3"></rect>
                    <rect id="Rectangle" x="1162" y="15" width="37" height="3"></rect>
                    <rect id="Rectangle" x="590" y="31" width="348" height="3"></rect>
                    <rect id="Rectangle" x="997" y="31" width="186" height="3"></rect>
                </g>
                <g id="left-boy" transform="translate(283.000000, 223.000000)">
                    <polygon id="Path-38" stroke="#D99AFF" fill="#D99AFF" points="188.382812 238.984375 216.662109 359.213867 211.168945 359.213867 175.557617 243.087891"></polygon>
                    <polygon id="Path-39" stroke="#D99AFF" fill="#D99AFF" points="95.6992188 239.030273 67.6142578 358.698242 72.4228516 358.698242 106.072266 244.332031"></polygon>
                    <circle id="Oval" stroke="#FF36A9" fill="#FF36A9" cx="141.5" cy="181.5" r="76.5"></circle>
                    <polygon id="Path-29" fill="#BF51F2" points="203.324219 91.5 197.671875 161.484375 297.820312 161.484375 301.392578 91.5"></polygon>
                    <polygon id="Path-30" stroke="#E6BEFF" fill="#E6BEFF" points="198 161.230469 298.898438 144.843262 297.544434 161.230469"></polygon>
                    <circle id="Oval" fill="#FFFFFF" cx="251" cy="125" r="8"></circle>
                    <path d="M227.839844,228.123047 L234.632812,230.044922 C236.679688,230.933594 237.191406,233.200846 236.167969,236.84668 C235.144531,240.492513 232.819336,247.007161 229.192383,256.390625 C226.739909,258.130208 224.922526,257.56543 223.740234,254.696289 C222.557943,251.827148 222.557943,248.222656 223.740234,243.882812 L220.600586,242.749296 L227.839844,228.123047 Z" id="Path-34" stroke="#FE9FB1" fill="#FE9FB1"></path>
                    <polygon id="Path-35" stroke="#FE9FB1" fill="#FE9FB1" points="161.34668 350.047852 161.34668 358.321289 190.132812 358.321289 190.132812 354.18457 177.645508 350.047852"></polygon>
                    <polygon id="Path-37" stroke="#FFCE00" fill="#FFCE00" points="102.490234 170.530273 181.639648 170.530273 180.197266 200.301758 151.285156 200.301758 102.490234 182.880859"></polygon>
                    <path d="M114.613281,228.115234 L156.097656,228.115234 L161.423828,349.566406 L179.228516,349.566406 L179.228516,230.910156 L220.642578,242.664062 L228.226563,228.115234 L179.228516,210.912109 L179.228516,199.837891 L151.224609,199.837891 L105.705078,183.802734 C98.172526,181.198568 93.0527344,182.05599 90.3457031,186.375 C87.6386719,190.69401 87.6386719,195.181641 90.3457031,199.837891 C101.616331,214.988085 107.94706,223.373501 109.337891,224.994141 C110.728721,226.61478 112.487184,227.655144 114.613281,228.115234 Z" id="Path-32" stroke="#2C0EB4" fill="#2C0EB4"></path>
                    <path d="M118.576172,212.535156 L152.748047,222.621094" id="Path-33" stroke="#5A47B4" stroke-width="2"></path>
                    <path d="" id="Path-36" stroke="#979797"></path>
                    <polygon id="Path-43" stroke="#FF7BA2" fill="#FF7BA2" points="131.518555 61.1005859 130.244141 82.65625 155.830078 82.65625 155.830078 73.7216797 175.827148 47.0400391 173.167969 23.4541016 163.056641 14.6308594 138.182617 16.7636719 124.999023 34.5507812 124.999023 48.6435547"></polygon>
                    <path d="M133.083008,48.2841797 L133.083008,61.3496094 C126.40332,60.2532552 123.063477,56.4065755 123.063477,49.8095703 C123.063477,43.2125651 123.063477,35.5286458 123.063477,26.7578125 C123.442383,18.9713542 125.724284,14.1510417 129.90918,12.296875 C134.094076,10.4427083 136.757487,9.28678385 137.899414,8.82910156 C138.421549,4.11946615 140.155273,1.76464844 143.100586,1.76464844 C146.045898,1.76464844 147.995443,2.55598958 148.949219,4.13867188 C150.126302,5.46419271 152.304362,4.67285156 155.483398,1.76464844 C160.251953,-2.59765625 177.446289,1.21582031 179.852539,12.296875 C182.258789,23.3779297 184.073242,28.1689453 174.326172,32.7744141 C171.270904,34.2180214 173.189103,24.5014094 172.713867,23.1640625 C172.178356,21.6570951 145.293945,26.1210938 143.100586,21.0185547 C141.638346,17.616862 141.638346,25.0009766 143.100586,43.1708984 C143.896159,46.5797526 148.023763,48.2841797 155.483398,48.2841797 C166.672852,48.2841797 169.813477,46.5322266 176.768555,46.5322266 C178.888556,46.5322266 177.926035,66.1259185 178.107422,69.2988281 C178.250975,71.8099325 169.685515,73.4538127 152.411042,74.2304688 C144.217743,73.3365885 140.121094,69.0429688 140.121094,61.3496094 C140.121094,53.65625 139.380534,46.4707031 137.899414,39.7929687 C136.049805,36.2235438 133.386393,35.3311876 129.90918,37.1159001 C124.693359,39.7929687 129.90918,46.5322266 129.90918,46.5322266 C129.90918,46.5322266 130.967122,47.1162109 133.083008,48.2841797 Z" id="Path-44" stroke="#2C0EB4" fill="#2C0EB4"></path>
                    <path d="M86.8759766,137.858398 L138.696289,147.647461 L138.696289,161.691406 L54.8867188,161.691406 L48.1357422,149.774902 C46.4261068,144.908691 47.9684245,140.177734 52.7626953,135.582031 C57.5569661,130.986328 73.4873047,114.849284 100.553711,87.1708984 C103.298503,83.7210286 109.202474,81.9960937 118.265625,81.9960937 C127.328776,81.9960937 143.260091,81.9960937 166.05957,81.9960937 C173.455404,81.8535156 179.048828,83.5784505 182.839844,87.1708984 C186.630859,90.7633464 192.246094,94.9869792 199.685547,99.8417969 L199.685547,142.24707 L182.839844,132.583008 L182.839844,154.969727 L168.75,154.969727 L164.512695,147.647461 C162.77181,144.061523 159.439128,142.866536 154.514648,144.0625 C147.12793,145.856445 143.06543,147.647461 141.743164,147.647461 C140.861654,147.647461 122.572591,144.38444 86.8759766,137.858398 Z" id="Path-40" stroke="#FFCE00" fill="#FFCE00"></path>
                    <path d="M87.7871094,137.383789 L138.90332,147.725586" id="Path-41" stroke="#FFFFFF" stroke-width="2"></path>
                    <rect id="Rectangle" fill="#3A196D" x="158" y="154" width="42" height="8"></rect>
                    <path d="M138.223633,147.613281 L138.223633,161.59375 L160.294922,161.59375 C165.514323,159.119792 167.258789,155.378581 165.52832,150.370117 C163.797852,145.361654 159.986328,143.510091 154.09375,144.81543 L142.516602,147.613281 L138.223633,147.613281 Z" id="Path-42" stroke="#FF7BA2" fill="#FF7BA2"></path>
                    <path d="M201.132812,90.5 L199.730469,124.921875" id="Path-31" stroke="#FFFFFF" stroke-width="3"></path>
                    <polygon id="Path-45" stroke="#D99AFF" fill="#D99AFF" points="15.7246094 170.300781 0.87890625 358.908203 5.65625 358.908203 28.2011719 166.865234"></polygon>
                    <rect id="Rectangle" fill="#BF47F8" x="5" y="161" width="355" height="10"></rect>
                </g>
                <g id="last-chair" transform="translate(921.000000, 312.000000)">
                    <polygon id="Path-48" stroke="#D99AFF" fill="#D99AFF" points="199.806641 156.148438 235.148438 269.640625 240.988281 269.640625 211.830078 145.255859"></polygon>
                    <polygon id="Path-49" stroke="#D99AFF" fill="#D99AFF" points="121.798828 144.720703 91.9375 270.213867 96.7421875 270.527344 133.902344 148.521484"></polygon>
                    <path d="M142.594307,164.105714 C150.271984,166.632792 158.476327,168 167,168 C206.669868,168 239.422927,138.385616 244.35743,100.058594 L238.515625,100.058594 L226.365234,126.251953 L186.146484,159.095703 L144.130859,159.095703 L142.594307,164.105714 Z" id="Combined-Shape" stroke="#FF0D97" fill="#FF0D97"></path>
                    <circle id="Oval" fill="#FFCE00" cx="167" cy="90" r="76"></circle>
                    <polygon id="Path-28" fill="#BF51F2" points="0.767578125 3.5 4.75976562 73.6796875 103.095703 73.6796875 100.298828 0.966796875"></polygon>
                    <polygon id="Path-28-Copy" stroke="#E6BEFF" fill="#E6BEFF" points="4.75976562 73.6796875 103.095703 73.6796875 103.095703 56.671875"></polygon>
                    <circle id="Oval" fill="#FFFFFF" cx="52.5" cy="37.5" r="7.5"></circle>
                    <polygon id="Path-47" stroke="#D99AFF" fill="#D99AFF" points="293.494141 82.7890625 305.816406 82.7890625 318.296875 270.621094 314.0625 270.621094"></polygon>
                </g>
                <g id="center-boy" transform="translate(635.000000, 219.000000)">
                    <polygon id="Path-12" fill="#BF51F2" points="111.335938 250 104.259766 354.066406 121.753906 354.066406 137.996094 225.498047"></polygon>
                    <polygon id="Path-10" stroke="#D99AFF" fill="#D99AFF" points="31.3125 241.521484 3 363.527344 8.25585938 363.527344 41.3789062 246.005859"></polygon>
                    <polygon id="Path-11" stroke="#D99AFF" fill="#D99AFF" points="113.291016 249.529297 146.566406 363.873047 151.441406 363.873047 124.345703 242.582031"></polygon>
                    <path d="M146.554687,208.654297 L178.292969,208.654297 C185.119792,209.421224 188.533203,215.008464 188.533203,225.416016 C188.533203,235.823568 183.365885,278.32487 173.03125,352.919922 L155.841797,352.919922 L164.212891,233.056641 L133.849609,233.056641 L146.554687,208.654297 Z" id="Path-13" fill="#BF51F2"></path>
                    <path d="M81.1992188,59.0166016 C73.3411458,56.9833984 69.4121094,52.0872396 69.4121094,44.328125 C69.4121094,36.5690104 69.4121094,29.9641927 69.4121094,24.5136719 C70.9947917,16.1790365 74.2389323,11.1337891 79.1445313,9.37792969 C86.5029297,6.74414063 85.4926758,9.36621094 87.784668,4.54199219 C90.0766602,-0.282226562 104.905762,0.0913085938 116.61084,1.37841797 C128.315918,2.66552734 132.901855,17.5078125 132.901855,21.3842773 C132.901855,25.2607422 132.131836,31.3725586 121.700195,32.3203125 C118.064976,32.6505859 120.774825,34.3956837 120.42627,35.3129883 C120.214099,35.8713636 119.698637,36.5798597 118.879883,37.4384766 L111.833496,40.1591797 L106.463379,41.6591797 L105.76123,49.6914063 L105.76123,55.4501953 L101.156982,59.0166016 L93.5849609,60.5073242 L83.4741211,59.875 L81.1992188,59.0166016 Z" id="Path-17" fill="#2C0EB4"></path>
                    <path d="M79.4550781,57.8886719 L79.4550781,88.2460938 L106.451172,88.2460938 L106.451172,67.8808594 L115.84375,67.8808594 C120.261719,68.0188802 122.470703,64.688151 122.470703,57.8886719 C122.470703,51.0891927 122.470703,41.7929687 122.470703,30 L119.944824,30 C118.811686,30.139974 118.245117,31.2032878 118.245117,33.1899414 C118.245117,36.1699219 115.652344,38.3120117 109.882812,38.3120117 C106.036458,38.3120117 104.202962,40.6393229 104.382324,45.2939453 C105.723796,52.867513 103.534831,57.0657552 97.8154297,57.8886719 C92.0960286,58.7115885 85.9759115,58.7115885 79.4550781,57.8886719 Z" id="Path-16" stroke="#FF7BA2" fill="#FF7BA2"></path>
                    <g id="Group" transform="translate(135.000000, 94.000000)">
                        <rect id="Rectangle" stroke="#E6BEFF" fill="#E6BEFF" x="38.5" y="65.5" width="50" height="8"></rect>
                        <rect id="Rectangle" fill="#BF51F2" x="41" y="46" width="48" height="19"></rect>
                        <polygon id="Path-20" stroke="#570080" fill="#570080" points="0.037109375 0.5 88.8242187 0.5 88.8242187 47.1796875 49.0683594 55.2929688"></polygon>
                        <path d="M27.4023438,10.2324219 L55.265625,10.2324219" id="Path-22" stroke="#FFFFFF"></path>
                        <path d="M62.203125,10.2929688 L71.5527344,10.2929688" id="Path-23" stroke="#FFFFFF"></path>
                        <path d="M34.625,17.8769531 L65.5332031,17.8769531" id="Path-24" stroke="#FFFFFF"></path>
                        <path d="M44.0800781,23.9511719 L72.5175781,23.9511719" id="Path-25" stroke="#FFFFFF"></path>
                        <path d="M48.7832031,30.2949219 L55.5722656,30.2949219" id="Path-26" stroke="#FFFFFF"></path>
                        <path d="M62.296875,29.3203125 L70.9882812,29.3203125" id="Path-27" stroke="#FFFFFF"></path>
                    </g>
                    <path d="M174.769531,132.900391 L186.838867,145.567383 C188.920898,150.844727 188.017904,155.634115 184.129883,159.935547 C180.241862,164.236979 177.121745,166.890625 174.769531,167.896484 L148.84375,167.896484 L141.878906,148.151367 L174.769531,132.900391 Z" id="Path-21" stroke="#FF7BA2" fill="#FF7BA2"></path>
                    <path d="M18.0419922,140.645508 L12.3535156,131.881836 L51.3125,92.0195312 C54.6777344,87.6829427 60.148763,85.5146484 67.7255859,85.5146484 C75.3024089,85.5146484 92.2314453,85.5146484 118.512695,85.5146484 C127.099284,85.5100911 134.62793,89.2565104 141.098633,96.7539062 C147.569336,104.251302 159.331706,115.960612 176.385742,131.881836 L156.404297,156.087891 L138.683594,145.609375 L18.0419922,140.645508 Z" id="Path-18" stroke="#FFCE00" fill="#FFCE00"></path>
                    <path d="M13.0625,130.994141 L2.38867188,142.514648 C0.185546875,146.411784 -0.365234375,150.665039 0.736328125,155.274414 C1.83789063,159.883789 16.2591146,173.110026 44,194.953125 L18.796875,138.574219 L13.0625,130.994141 Z" id="Path-19" stroke="#FF7BA2" fill="#FF7BA2"></path>
                    <rect id="Rectangle" fill="#BF47F8" x="151" y="167" width="449" height="10"></rect>
                    <path d="M54.9876824,109.275758 C62.1188731,107.144698 69.6757573,106 77.5,106 C120.854353,106 156,141.145647 156,184.5 C156,197.634885 152.774042,210.016307 147.071208,220.895184 L141.607422,218.820313 L138.566406,170.162109 L106.753906,124.373047 L58.4492187,115.509766 L54.9876824,109.275758 Z" id="Combined-Shape" fill="#FFFFFF"></path>
                    <circle id="Oval-2" fill="#FF0D97" cx="77.5" cy="184.5" r="76.5"></circle>
                    <polygon id="Path-14" fill="#2C0EB4" points="104.212891 353.425781 104.212891 363.347656 133.054688 363.347656 133.054688 358.386719 121.1295 353.425781"></polygon>
                    <polygon id="Path-15" fill="#2C0EB4" points="155.740234 352.673828 155.740234 363.216797 183.734375 363.216797 183.734375 357.945312 172.929688 352.673828"></polygon>
                </g>
            </g>
        </g>
    </g>
</svg>