<?xml version="1.0" encoding="UTF-8"?>
<svg width="1284px" height="776px" viewBox="0 0 1284 776" version="1.1" xmlns="http://www.w3.org/2000/svg" xmlns:xlink="http://www.w3.org/1999/xlink">
    <!-- Generator: Sketch 52.5 (67469) - http://www.bohemiancoding.com/sketch -->
    <title>all</title>
    <desc>Created with Sketch.</desc>
    <g id="Page-1" stroke="none" stroke-width="1" fill="none" fill-rule="evenodd">
        <g id="contact" transform="translate(-215.000000, -125.000000)">
            <g id="all" transform="translate(215.000000, 125.000000)">
                <g id="misc">
                    <g id="bottom-lines" transform="translate(0.000000, 727.000000)">
                        <rect id="Rectangle" fill="#E6BEFF" x="0" y="0" width="1284" height="4"></rect>
                        <rect id="Rectangle" fill="#E6BEFF" x="190" y="22" width="94" height="4"></rect>
                        <rect id="Rectangle-Copy" fill="#E6BEFF" x="371" y="23" width="300" height="4"></rect>
                        <rect id="Rectangle-Copy-2" fill="#E6BEFF" x="722" y="23" width="184" height="4"></rect>
                        <rect id="Rectangle-Copy-3" fill="#E6BEFF" x="524" y="45" width="254" height="4"></rect>
                        <rect id="Rectangle-Copy-4" fill="#E6BEFF" x="253" y="45" width="191" height="4"></rect>
                        <g id="secondary" transform="translate(247.000000, 2.000000)" fill="#68218E">
                            <rect id="Rectangle" x="0" y="0" width="16" height="2"></rect>
                            <rect id="Rectangle-Copy-5" x="26" y="0" width="38" height="2"></rect>
                            <rect id="Rectangle-Copy-6" x="77" y="0" width="15" height="2"></rect>
                            <rect id="Rectangle-Copy-7" x="333" y="0" width="89" height="2"></rect>
                            <rect id="Rectangle-Copy-8" x="433" y="0" width="10" height="2"></rect>
                            <rect id="Rectangle-Copy-9" x="762" y="0" width="33" height="2"></rect>
                            <rect id="Rectangle-Copy-10" x="804" y="0" width="15" height="2"></rect>
                        </g>
                    </g>
                    <g id="bg-light" transform="translate(6.000000, 0.000000)" fill="#FAF4FF">
                        <path d="M128.630859,728.201172 C50.0488281,684.451172 7.59179687,612.050781 1.25976563,511 C-1.6408553,464.709955 10.9040281,427.002188 38.8944159,397.876699 C56.9742458,379.063673 91.7754683,391.33837 143.298083,434.700789 C154.683036,444.282583 198.089844,483.308594 219.119141,479.154297 C233.138672,476.384766 230.369141,386.076823 210.810547,208.230469 C175.948568,149.798177 175.948568,112.289714 210.810547,95.7050781 C245.672526,79.1204427 278,90.7326692 307.792969,130.541757 C387.085938,250.420169 450.382813,289.556641 497.683594,247.951172 C531.028131,218.621527 540.866541,177.418788 527.198825,124.342954 C521.478248,102.128241 505.890625,40.1933594 541.224609,10.453125 C564.780599,-9.37369792 606.690104,-0.324869792 666.953125,37.5996094 C736.268229,93.2745867 794.968099,165.181488 843.052734,253.320312 C891.13737,341.459137 925.784505,334.430491 946.994141,232.234375 L1024.96094,148.630859 C1060.76693,121.124349 1102.89974,127.059245 1151.35938,166.435547 C1199.81901,205.811849 1201.6862,270.141276 1156.96094,359.423828 L1104.87305,427 C1090.45898,442.145833 1091.80859,458.145833 1108.92188,475 C1118.96413,484.890208 1139.06868,500.569751 1169.23551,522.038627 C1190.47678,537.155433 1239.99609,593.798828 1198.47852,661 C1170.80013,705.800781 1150.67318,728.201172 1138.09766,728.201172 L128.630859,728.201172 Z" id="Path-52"></path>
                        <path d="M804.341797,60.0917461 C805.516276,39.7363112 816.251302,31.3938802 836.546875,35.0644531 C866.990234,40.5703125 915.914063,65.6289063 901.802734,117.419922 C892.395182,151.947266 874.514974,162.230385 848.162109,148.26928 C821.096819,118.59774 806.57287,93.2106869 804.590263,72.1081202 C804.527277,71.4377026 804.444455,67.4322445 804.341797,60.0917461 Z" id="Path-53"></path>
                    </g>
                    <g id="clock" transform="translate(347.000000, 5.000000)" stroke-width="3">
                        <circle id="Oval" stroke="#ECCFFF" cx="68" cy="68" r="68"></circle>
                        <circle id="Oval-Copy" stroke="#C15EFB" cx="68.5" cy="68.5" r="57.5"></circle>
                        <polyline id="Path-54" stroke="#C15EFB" points="68.7363281 34.8261719 68.7363281 68.6640625 94.3222656 68.6640625"></polyline>
                        <path d="M68.90625,11.6386719 L68.90625,22.0976562" id="Path-55" stroke="#C15EFB"></path>
                        <path d="M94.972168,18.6230135 L94.972168,29.0819979" id="Path-55" stroke="#C15EFB" transform="translate(94.972168, 23.852506) rotate(30.000000) translate(-94.972168, -23.852506) "></path>
                        <path d="M114.053744,37.7045898 L114.053744,48.1635742" id="Path-55" stroke="#C15EFB" transform="translate(114.053744, 42.934082) rotate(60.000000) translate(-114.053744, -42.934082) "></path>
                        <path d="M121.038086,63.7705078 L121.038086,74.2294922" id="Path-55" stroke="#C15EFB" transform="translate(121.038086, 69.000000) rotate(90.000000) translate(-121.038086, -69.000000) "></path>
                        <path d="M114.053744,89.8364258 L114.053744,100.29541" id="Path-55" stroke="#C15EFB" transform="translate(114.053744, 95.065918) rotate(120.000000) translate(-114.053744, -95.065918) "></path>
                        <path d="M94.972168,108.918002 L94.972168,119.376986" id="Path-55" stroke="#C15EFB" transform="translate(94.972168, 114.147494) rotate(150.000000) translate(-94.972168, -114.147494) "></path>
                        <path d="M68.90625,115.902344 L68.90625,126.361328" id="Path-55" stroke="#C15EFB" transform="translate(68.906250, 121.131836) rotate(180.000000) translate(-68.906250, -121.131836) "></path>
                        <path d="M42.840332,108.918002 L42.840332,119.376986" id="Path-55" stroke="#C15EFB" transform="translate(42.840332, 114.147494) rotate(210.000000) translate(-42.840332, -114.147494) "></path>
                        <path d="M23.7587557,89.8364258 L23.7587557,100.29541" id="Path-55" stroke="#C15EFB" transform="translate(23.758756, 95.065918) rotate(240.000000) translate(-23.758756, -95.065918) "></path>
                        <path d="M16.7744141,63.7705078 L16.7744141,74.2294922" id="Path-55" stroke="#C15EFB" transform="translate(16.774414, 69.000000) rotate(270.000000) translate(-16.774414, -69.000000) "></path>
                        <path d="M23.7587557,37.7045898 L23.7587557,48.1635742" id="Path-55" stroke="#C15EFB" transform="translate(23.758756, 42.934082) rotate(300.000000) translate(-23.758756, -42.934082) "></path>
                        <path d="M42.840332,18.6230135 L42.840332,29.0819979" id="Path-55" stroke="#C15EFB" transform="translate(42.840332, 23.852506) rotate(330.000000) translate(-42.840332, -23.852506) "></path>
                    </g>
                    <g id="flowerwase" transform="translate(145.000000, 193.000000)">
                        <path d="M86.0234375,0.337890625 C93.5527344,0.337890625 105.197838,5.67445229 111.231274,14.3654511 C118.605737,24.988164 122.292969,40.1996803 122.292969,60 C122.292969,114 128.179688,126.540313 163.068359,153.535156 C186.327474,171.531718 197.587891,185.686666 196.849609,196 C197.625651,206.884115 189.111979,225.217448 171.308594,251 C144.603516,289.673828 152.271484,305.675781 171.308594,338.486328 C190.345703,371.296875 184.400391,395.433594 149.623047,418.216797 C126.438151,433.405599 95.5514323,434.650391 56.9628906,421.951172 C16.7688802,400.468099 -1.92578125,376.605469 0.87890625,350.363281 C2.84064655,332.008168 16.6347089,321.925074 42.2610932,320.113999 C53.272586,319.335791 73.4414063,299 52.0234375,275 C30.6054687,251 0.646484375,223.339844 6.6640625,174.720703 C9.34520682,153.058345 14.2180795,132.764181 21.2826805,113.838212 C24.7886378,104.445801 35.4498443,70.5 38.8554687,51 C42.1100904,32.3646152 56.8449198,7.61270162 75.8255448,1.12109506 C76.706178,0.819907725 78.4941406,0.337890625 86.0234375,0.337890625 Z" id="Path-62" fill="#D99AFF"></path>
                        <path d="M97.7773438,169.123047 L97.7773438,469" id="Path-56" stroke="#68218E" stroke-width="3"></path>
                        <rect id="Rectangle" fill="#FFCE00" x="45" y="469" width="105" height="11"></rect>
                        <path d="M84.5058594,469 L149.607421,469" id="Path-57" stroke="#68218E" stroke-width="3"></path>
                        <path d="M97.3945312,254 C107.260417,233.333333 119.448568,220.333333 133.958984,215" id="Path-58" stroke="#68218E" stroke-width="2"></path>
                        <path d="M98.7910156,377.966797 C91.3574219,364.386068 82.3365885,355.184896 71.7285156,350.363281" id="Path-59" stroke="#68218E" stroke-width="2"></path>
                        <path d="M45.1660156,483.421875 L149.080078,483.421875 L149.080078,509.97167 C142.431277,526.696286 125.112267,535.058594 97.1230469,535.058594 C69.1338267,535.058594 51.8148163,526.452474 45.1660156,509.240234 L45.1660156,483.421875 Z" id="Path-61" stroke="#FFCE00" fill="#FFCE00" stroke-linejoin="round"></path>
                        <path d="M45.7480469,489.458984 C43.9121094,509.646484 50.0286458,523.235026 64.0976563,530.224609" id="Path-60" stroke="#68218E" stroke-width="3"></path>
                    </g>
                </g>
                <g id="left-person" transform="translate(427.000000, 112.000000)">
                    <g id="bag" transform="translate(0.000000, 331.000000)">
                        <path d="M48.0820312,49 C48.6809896,34.5692001 55.2623698,27.3538001 67.8261719,27.3538001 C80.389974,27.3538001 86.6478785,34.5701766 86.5998854,49.0029297" id="Path-66" stroke="#660082" stroke-width="2"></path>
                        <polygon id="Path-63" fill="#FF5998" points="0.03515625 46.03125 136.863281 46.03125 136.863281 140.773437 0.03515625 140.773437"></polygon>
                        <path d="M136.003906,84 L136.003906,139.876953" id="Path-64" stroke="#660082" stroke-width="2"></path>
                        <path d="M136.349609,71.3261719 L136.349609,76.4550781" id="Path-65" stroke="#660082" stroke-width="2"></path>
                        <path d="M58.9492188,3 L75.9335938,0.339355469 L75.9335938,10 C80.7872858,24.0233205 80.6158163,33.052007 75.4191854,37.0860596 C74.3733787,37.8979007 64.0092527,41.0785511 59.4814799,32.2024542 C59.0293391,31.3160922 58.8519187,21.5819408 58.9492188,3 Z" id="Path-67" fill="#FF7BA2"></path>
                    </g>
                    <g id="pant" transform="translate(66.000000, 277.000000)">
                        <polygon id="Path-68" fill="#9E00E8" points="24.1875 0.973144531 126.792969 0 111.589844 325.408203 88.4179688 325.408203 88.4179688 40.9042969 61.2207031 40.9042969 23.5664063 325.408203 0.150390625 325.408203 23.5664063 28"></polygon>
                        <path d="M16.5214844,111.917969 L8.09570312,225.951172" id="Path-69" stroke="#FFFFFF" stroke-width="2"></path>
                        <path d="M0.280761719,324.894531 L1.09228516,339.058594 L36.984375,339.044922 C41.0520833,335.848307 41.0520833,333.261393 36.984375,331.28418 C32.9166667,329.306966 28.4749349,327.177083 23.6591797,324.894531 L0.280761719,324.894531 Z" id="Path-73" fill="#570081"></path>
                        <path d="M88.5390625,324.894531 L87.9042969,340.126953 L124.34375,340.126953 C127.419271,338.001953 127.419271,335.054362 124.34375,331.28418 C121.268229,327.513997 116.440104,325.384115 109.859375,324.894531 L88.5390625,324.894531 Z" id="Path-74" fill="#570081"></path>
                    </g>
                    <g id="shirt" transform="translate(37.000000, 113.000000)">
                        <path d="M53.0292969,166 L48.7460938,91.3333908 L48.7460938,106.980469 L39.5273438,118 L39.5273438,219 L21.9863281,221.849609 L0.955078125,121.535156 C-1.15820312,113.007007 0.800130208,102.939751 6.83007813,91.3333908 C12.860026,79.72703 23.7591146,55.6575664 39.5273437,19.125 C45.859375,6.70833333 55.7832031,0.5 69.2988281,0.5 C82.8144531,0.5 107.349609,0.5 142.904297,0.5 C155.613932,1.67057292 164.833333,7.87890625 170.5625,19.125 C176.291667,30.3710938 189.883464,54.4405573 211.337891,91.3333908 L260.025391,106.980469 L257.115234,125.895184 L203.464844,125.895184 C193.574219,126.430556 186.061849,123.798828 180.927734,118 C175.79362,112.201172 168.981283,103.952637 160.490723,93.2543945 L155.822266,164.973145 L53.0292969,166 Z" id="Path-70" fill="#D99AFF"></path>
                        <path d="M143.570312,73.9238497 L165.15625,99.953125" id="Path-71" stroke="#FFFFFF" stroke-width="2"></path>
                        <path d="M48.6992188,91.3333908 L48.6992188,113.654297" id="Path-72" stroke="#FFFFFF" stroke-width="2"></path>
                    </g>
                    <g id="hair" transform="translate(109.000000, 0.000000)">
                        <path d="M15.4863281,113.5 L50.9492187,113.5 L50.9492187,96.2304687 L66.1933594,96.2304687 C72.6608073,95.2128906 75.8945312,89.3051758 75.8945312,78.5073242 C75.8945312,67.7094727 75.8945313,55.5540365 75.8945313,42.0410156 L15.4863281,42.0410156 L15.4863281,113.5 Z" id="Path-75" fill="#FF7BA2"></path>
                        <path d="M15.0644531,81.1113281 C5.40039063,78.5761719 0.568359375,71.4277344 0.568359375,59.6660156 C0.568359375,49.8876383 0.568359375,41.4110758 0.568359375,34.2363281 C0.568359375,33.2661621 0.815917969,31.8066895 1.31103516,29.8579102 C1.70357328,28.583383 2.11903051,27.618689 2.55740684,26.9638281 C10.2308524,15.5009836 17.1619519,9.51008798 23.3507053,8.99114134 C23.8110043,8.9525438 24.517182,8.9525438 25.4692383,8.99114134 C26.6176758,4.10251586 29.1196289,1.42985026 32.9750977,0.973144531 C36.8305664,0.516438802 39.6559245,1.33935547 41.4511719,3.44189453 C43.3626302,4.87255859 44.953125,4.62369792 46.2226563,2.6953125 C47.4921875,0.766927083 54.2405599,0.192871094 66.4677734,0.973144531 C74.1582905,4.04546337 78.7942233,8.06428035 80.3755718,13.0295955 C80.4941581,13.4019474 89.5878906,16.5014648 89.5878906,29.0649414 C89.5878906,40.9162966 80.8245281,43.2256714 72.0255439,43.4493943 C71.6730698,43.4583563 71.1043338,43.4583563 70.3193359,43.4493943 C69.6699219,47.7946549 67.7049154,50.7801107 64.4243164,52.4057617 C62.5704309,53.3244266 59.7048198,53.3403089 55.827483,52.4534087 C52.8435618,51.7708679 50.2587891,57.4526367 50.2587891,62.1962891 C50.2587891,65.358724 50.2587891,68.2545573 50.2587891,70.8837891 C49.4046224,76.0797526 46.0721029,79.4889323 40.2612305,81.1113281 C34.4503581,82.733724 26.0514323,82.733724 15.0644531,81.1113281 Z" id="Path-76" fill="#570080"></path>
                    </g>
                </g>
                <g id="cloths" transform="translate(842.000000, 227.000000)">
                    <path d="M0.514648437,69.6796875 L35.2470703,96.0585938 L40.4599609,92.8085938 L44.8681641,162 L148.78418,163.845703 L152.619141,94.5595703 L155.667969,94.5595703 L190.87207,71 L160.108398,14.8769531 C154.484701,5.62565104 146.651367,1 136.608398,1 C126.56543,1 99.4410807,1 55.2353516,1 C46.1044922,0.696614583 38.4228516,5.32226563 32.1904297,14.8769531 C25.9580078,24.4316406 15.3994141,42.6992188 0.514648437,69.6796875 Z" id="Path-80" fill="#FFCE00"></path>
                    <polygon id="Path-81" fill="#FF0D97" points="45.109375 162 148.15918 162.973145 151.371094 486.548828 127.181641 486.548828 109.920898 202.444336 85.3242188 202.444336 85.3242188 486.548828 59.6933594 486.548828"></polygon>
                    <path d="M149.545898,342.851562 L150.826172,470" id="Path-82" stroke="#570081" stroke-width="2"></path>
                    <path d="M149.241211,330.621094 L149.241211,337.296875" id="Path-83" stroke="#570081" stroke-width="2"></path>
                    <path d="M84.9365234,486.138184 L84.9365234,501.024414 L47.2246094,501.024414 C43.6627604,498.180664 43.6627604,495.600586 47.2246094,493.28418 C50.7864583,490.967773 55.0415039,488.585775 59.9897461,486.138184 L84.9365234,486.138184 Z" id="Path-84" fill="#570081"></path>
                    <path d="M127.415039,486.075195 L151.468262,486.075195 L150.767578,501.18457 L114.260742,501.18457 C111.048503,497.450846 111.048503,494.817383 114.260742,493.28418 C117.472982,491.750977 121.857747,489.347982 127.415039,486.075195 Z" id="Path-85" fill="#570081"></path>
                    <path d="M38.6621094,59.0878906 L42.4707031,111.654297" id="Path-86" stroke="#FFFFFF" stroke-width="2"></path>
                    <path d="M141.525391,80 L154.160156,96.0585938" id="Path-87" stroke="#FFFFFF" stroke-width="2"></path>
                    <path d="M109.539062,20.9511719 L112.828125,17.125" id="Path-89" stroke="#FFFFFF" stroke-width="2"></path>
                </g>
                <g id="skin" transform="translate(719.000000, 109.000000)">
                    <path d="M3.33398437,222.429688 L0.548828125,241.895184 L6.83886719,241.895184 C9.78372595,250.070746 13.748683,253.934551 18.7337382,253.4866 C19.5217623,253.41579 22.0561523,253.117676 22.0561523,252.440918 C22.0561523,251.76416 26.421875,258.306152 34.8417969,251.222168 C37.3551668,249.107579 38.56859,246.49847 38.4820666,243.394841 C38.4727438,243.06043 38.4727438,242.560544 38.4820666,241.895184 L125.847168,241.895184 C133.126007,240.487952 138.137496,238.018381 140.881636,234.486473 C141.077539,234.234332 147.353159,227.158437 159.708496,213.258789 L123.790039,187 L112.385742,205.269043 C58.7279576,218.587345 29.2081157,226.411491 23.8262164,228.741482 C23.2919838,228.972768 22.7019625,229.27704 22.0561523,229.654297 L3.33398437,222.429688 Z" id="Path-77" fill="#FF7BA2"></path>
                    <path d="M277.160156,213.012207 L291.050781,229.654297 L283.717773,335 C279.39681,355.976562 282.346354,366.38737 292.566406,366.232422 C305.906783,366.030166 306.434308,355.573784 301.319876,336.898128 C300.811335,335.041159 310.322548,299.293216 329.853516,229.654297 C331.365234,224.03776 330.134115,217.881185 326.160156,211.18457 C322.186198,204.487956 318.202474,197.058594 314.208984,188.896484 L280.864746,210.273926 L277.160156,213.012207 Z" id="Path-78" fill="#FF7BA2"></path>
                    <path d="M243.195285,119.056666 C239.690722,128.720455 236.138648,134.942452 232.539062,137.722656 C228.707236,140.682235 224.851057,143.447172 218.798828,144 C204.201823,145.333333 194.899414,137 190.891602,119 L190.660699,117.828125 L199.15332,117.828125 L199.15332,102.401367 L174.20459,67.2529297 C174.03445,59.1276251 174.03445,53.1375535 174.20459,49.2827148 C174.374729,45.4278762 174.875218,40.0784296 175.706055,33.234375 L183.530273,28.2128906 L218.839844,21 L232.417969,39.2692796 L243.226562,51 L240.847656,69.3681641 L234.03125,79.2753906 L235.611328,117.828125 L243.195285,119.056666 Z" id="Combined-Shape" fill="#FF7BA2"></path>
                    <path d="M174.348633,67.2978516 L209.863281,67.2978516 C215.501953,64.6728516 217.68457,60.4772135 216.411133,54.7109375 C215.137695,48.9446615 215.137695,39.0414594 216.411133,25.0013314 C212.555013,30.6977094 206.808594,33.5458984 199.171875,33.5458984 C191.535156,33.5458984 183.771484,33.5458984 175.880859,33.5458984 L174.348633,49.7880859 C163.979492,46.9627216 158.794922,41.5486591 158.794922,33.5458984 C158.794922,25.5431378 160.849935,20.8478253 164.959961,19.4599609 C167.102539,8.7750651 172.548828,3.43261719 181.298828,3.43261719 C194.423828,3.43261719 197.102539,1.75 201.241211,4.83691406 C202.060252,5.44781252 202.752707,5.1164043 203.318576,3.84268939 C204.212165,1.83131112 206.393734,0.769001894 209.863281,0.655761719 C214.328776,1.01708984 217.69873,3.45735677 219.973145,7.9765625 C220.482994,8.98962019 221.87369,9.36489016 224.145233,9.1023724 C232.006945,8.19381003 241.001953,16.0258561 243.506836,25.0013314 C245.176758,30.9849816 246.069987,46.1230469 246.186523,70.4155273 C244.405457,76.4607747 240.286641,79.7045898 233.830078,80.1469727 C233.123272,80.1954007 232.821367,79.9869497 232.924363,79.5216195 C233.482934,76.9980266 233.482934,71.3098305 232.924363,62.4570313 C237.714697,60.866862 239.890788,57.8583984 239.452637,53.4316406 C239.014486,49.0048828 236.838395,46.4541016 232.924363,45.7792969 C228.91934,46.1506299 226.154311,47.2762867 224.629278,49.1562673 C224.52008,49.2908802 224.945575,60.6369031 225.905762,83.1943359 C225.20752,91.1188151 220.922201,97.1769206 213.049805,101.368652 C209.920225,103.035027 200.713815,103.701453 185.430576,103.367932 C177.41487,103.193007 173.758887,97.1906306 174.462628,85.3608019 C174.733247,80.8117171 174.4445,77.7719235 174.348633,74.6230469 C174.309905,73.3510003 174.309905,71.4302647 174.348633,68.8608398 L174.348633,67.2978516 Z" id="Path-90" fill="#570080"></path>
                    <path d="M192.058594,123.234375 C195.938802,136.864583 204.186849,143.786458 216.802734,144 C220.317077,144.059485 223.621257,143.455747 226.715275,142.188785" id="Path-88" stroke="#FFFFFF" stroke-width="2"></path>
                </g>
            </g>
        </g>
    </g>
</svg>