<?xml version="1.0" encoding="UTF-8"?>
<svg width="1987px" height="738px" viewBox="0 0 1987 738" version="1.1" xmlns="http://www.w3.org/2000/svg" xmlns:xlink="http://www.w3.org/1999/xlink">
    <!-- Generator: Sketch 48.1 (47250) - http://www.bohemiancoding.com/sketch -->
    <title>Group</title>
    <desc>Created with Sketch.</desc>
    <defs></defs>
    <g id="home-illu" stroke="none" stroke-width="1" fill="none" fill-rule="evenodd" transform="translate(-390.000000, -185.000000)">
        <g id="Group" transform="translate(360.000000, 47.000000)">
            <g id="right-part" transform="translate(633.000000, 0.000000)">
                <g id="bg" transform="translate(134.000000, 138.000000)" fill="#E8F4FD">
                    <path d="M138.992188,694.457031 C65.5989583,608.497396 21.1770833,531.511719 5.7265625,463.5 C-17.4492187,361.482422 38.1328125,363.990234 48.0859375,365.892578 C58.0390625,367.794922 78.1113281,370.867188 111.933594,389.716797 C134.481771,402.283203 179.939453,426.877604 248.306641,463.5 C286.078776,477.833333 314.790365,473.542969 334.441406,450.628906 C363.917969,416.257813 362.484375,351.640625 321.837891,281.972656 C281.191406,212.304688 214.587891,113.791016 254.033203,88.7636719 C293.478516,63.7363281 361.064453,114.800781 398.96875,164.505859 C436.873047,214.210938 476.5,253.080078 514.771484,240.443359 C540.285807,232.01888 552.472005,181.458984 551.330078,88.7636719 C547.80013,40.233724 557.166667,11.9895833 579.429687,4.03125 C612.824219,-7.90625 667.363281,6.53320313 719.832031,57.6855469 C772.300781,108.837891 870.544922,242.242187 886.992187,278.232422 C897.957031,302.225911 905.192708,298.253255 908.699219,266.314453 C936.378906,251.013672 967.394531,220.091797 1001.74609,173.548828 C1053.27344,103.734375 1090.11719,129.035156 1097.88867,133.607422 C1105.66016,138.179688 1152.06836,174.394531 1184.52539,256.986328 C1216.98242,339.578125 1206.53516,460.1875 1199.38867,486.609375 C1192.24219,513.03125 1146.37305,642.416016 1084.82031,694.457031" id="Path-15"></path>
                </g>
                <g id="bunch-bottom" transform="translate(455.000000, 570.000000)">
                    <path d="M399.952865,13 L602.047135,13 C602.675386,17.5768649 603,22.2505236 603,27 C603,83.3330445 557.333044,129 501,129 C444.666956,129 399,83.3330445 399,27 C399,22.2505236 399.324614,17.5768649 399.952865,13 Z" id="Combined-Shape" fill="#FF819F"></path>
                    <polygon id="Rectangle-12" fill="#A6D5FA" points="18 14 34 14 6.30664062 263 0.099609375 263"></polygon>
                    <polygon id="Rectangle-13" fill="#A6D5FA" points="687 14 703 14 721.4375 263 715.900391 263"></polygon>
                    <path d="M563.820035,107.365176 L601.128906,263 L592.371094,263 L550.31676,116.306707 C555.062116,113.68064 559.575991,110.687343 563.820035,107.365166 Z" id="Combined-Shape" fill="#A6D5FA"></path>
                    <path d="M451.514477,116.213105 L409.035156,265.058594 L401.730469,263.011719 L438.206412,107.385871 C442.392405,110.660385 446.840683,113.615056 451.514477,116.213105 Z" id="Combined-Shape" fill="#A6D5FA"></path>
                    <rect id="Rectangle-17" fill="#38A0F4" x="7" y="0" width="708" height="16"></rect>
                    <rect id="Rectangle-16" fill="#0D3C61" x="7" y="12" width="80" height="4"></rect>
                    <rect id="Rectangle-16-Copy" fill="#0D3C61" x="113" y="12" width="26" height="4"></rect>
                    <rect id="Rectangle-16-Copy-2" fill="#0D3C61" x="154" y="12" width="186" height="4"></rect>
                    <rect id="Rectangle-16-Copy-3" fill="#0D3C61" x="370" y="12" width="345" height="4"></rect>
                    <polygon id="Path-10" fill="#3F327A" points="284.116211 229.941406 452.375977 115.28418 440.415039 160.100586 295.43457 248.722656 282.462891 244.208984 282.462891 232.609375"></polygon>
                    <path d="M285.716797,228.28418 L262.425781,244.099609 C260.290365,248.353516 260.290365,252.306641 262.425781,255.958984 C265.628906,261.4375 272.016602,261.470703 275.129883,260.944336 C277.205404,260.593424 285.28776,255.787109 299.376953,246.525391 C292.859375,246.944661 288.30599,245.505859 285.716797,242.208984 C283.127604,238.912109 283.127604,234.270508 285.716797,228.28418 Z" id="Path-8" fill="#FE9FB1"></path>
                    <path d="M404.010111,261 L369.829274,261 C368.811792,257.408456 373.342008,253.271086 383.419922,248.587891 L406.482422,248.587891 L404.010111,261 Z" id="Combined-Shape" fill="#FE9FB1"></path>
                    <polygon id="Rectangle-19" fill="#FFC359" points="462 16 568 16 552.43457 74.1953125 454.749023 50.5419922"></polygon>
                    <path d="M338.589844,84.1210938 L383.650476,248.955078 L407.273568,248.955078 L372.931706,90.0136719 L474.93776,90.0136719 C479.181257,92.4303385 482.439727,93.6386719 484.713169,93.6386719 C486.986611,93.6386719 475.273698,101.399089 449.57443,116.919922 L437.941595,161.632812 L538.357802,101.478516 C543.541406,100.953776 548.419157,91.2265625 552.991055,72.296875" id="Path-11" fill="#3F327A"></path>
                    <path d="M551.724609,73.6015625 L454.685547,49.4238281 L454.685547,54.8457031 L347.617187,61.5126953 C338.863281,62.1565755 336.020182,70.3860677 339.087891,86.2011719" id="Path-12" fill="#3F327A"></path>
                    <path d="M432.304688,99.7871094 C408.175781,75.4863281 397.750651,47.2825521 401.029297,15.1757812" id="Path-13" stroke="#0D3C61" stroke-width="3"></path>
                    <path d="M528.373047,122.951172 C564.015037,112.132161 587.789947,88.2695312 599.697776,51.3632812" id="Path-14" stroke="#0D3C61" stroke-width="3"></path>
                </g>
                <g id="abstract" transform="translate(611.000000, 176.000000)">
                    <path d="M82.1582031,225.263672 C55.7831827,219.581687 38.194641,212.206036 29.3925781,203.136719 C19.7181697,193.16857 8.83367514,181.988478 4.25585938,165.642578 C0.93371495,153.780275 -0.436321052,139.174211 0.740234375,125.40625 C2.79413725,101.371637 16.4029611,84.4990636 29.3925781,72.0917969 C38.0608275,63.8121623 56.3598603,53.3763525 80.0507813,50.5546875 C86.9693048,49.7306691 98.0591485,50.6909555 113.320313,53.4355469 C124.589268,58.5349262 133.149164,63.4372699 139,68.1425781 C144.850836,72.8478863 152.229091,80.8843446 161.134766,92.2519531 C176.318022,85.3137928 187.568673,81.6119698 194.886719,81.1464844 C211.929089,80.0624551 228.769853,86.9766984 240.75,97.5566406 C252.14692,107.621521 259.376111,127.844678 257.583984,146.291016 C257.091334,151.361859 255.132426,161.770579 251.599609,169.862242 C249.795301,173.994881 246.178765,179.804472 240.75,187.291016 C245.096354,232.097005 230.617187,262.791667 197.3125,279.375 C175.572305,290.20005 155.137913,288.711218 139,283.724609 C118.054427,277.252435 103.434885,263.755381 100.0625,260.160156 C96.0820312,255.916667 90.1139323,244.284505 82.1582031,225.263672 Z" id="Path" fill="#A6D5FA"></path>
                    <circle id="Oval" fill="#A6D5FA" cx="302.5" cy="224.5" r="20.5"></circle>
                    <path d="M444.355469,21.5205078 C469.991536,39.6292318 475.235026,65.1647135 460.085937,98.1269531 C451.944661,111.439453 443.366862,119.086589 434.352539,121.068359 C420.831055,124.041016 399.46875,108.37793 387.555664,90.1035156 C375.642578,71.8291016 359.59082,25.5605469 374.330078,5.36230469 C375.58531,3.64217259 378.01813,2.64072134 377.694336,3.0234375 C377.353606,3.4261709 374.223374,5.26375692 374.330078,5.36230469 C374.560616,5.57522007 377.634592,2.86228234 377.694336,3.0234375 C377.786371,3.27169441 405.901367,-5.64257812 444.355469,21.5205078 Z" id="Path-2" fill="#E8F4FD"></path>
                </g>
                <g id="plant" transform="translate(234.000000, 322.000000)">
                    <path d="M82.8203125,0.125 C102.615885,5.46223958 113.104167,21.0481771 114.285156,46.8828125 C116.056641,85.6347656 113.84375,118.220703 144.914063,139.158203 C175.984375,160.095703 189.492188,173.898438 186.285156,192.824219 C184.147135,205.441406 177.324219,219.244792 165.816406,234.234375 C152.755208,251.864583 146.563151,266.46224 147.240234,278.027344 C148.255859,295.375 154.203125,306.738281 163.244141,323.755859 C172.285156,340.773438 174.550781,353.910156 172.382813,363.105469 C170.214844,372.300781 160.621094,388.439453 137.453125,401.070313 C114.285156,413.701172 71.3085938,416.855469 47.5683594,401.070313 C23.828125,385.285156 1.35742188,359.335938 0.6484375,340.160156 C-0.060546875,320.984375 11.5214844,309.634766 28.1796875,307.146484 C44.8378906,304.658203 56.7421875,300.220703 57.453125,286.429688 C58.1640625,272.638672 48.5527344,262.896484 40.6953125,253.095703 C32.8378906,243.294922 6.75195312,225.443359 5.2890625,177.439453 C3.82617188,129.435547 29.0527344,90.6777344 33.1933594,58.7695313 C37.3339844,26.8613281 62.8026282,0.125 78.2421875,0.125" id="Path-7" fill="#64B5F6"></path>
                    <rect id="Rectangle-3" fill="#0D3C61" x="91" y="162" width="3" height="285"></rect>
                    <rect id="Rectangle-2" fill="#0D3C61" x="78" y="447" width="63" height="6"></rect>
                    <rect id="Rectangle" fill="#FFC359" x="43" y="449" width="98" height="9"></rect>
                    <path d="M42.6660156,461.255859 L140.726562,461.255859 C145.109375,494.611328 128.94401,511.39388 92.2304687,511.603516 C55.5169271,511.813151 38.9954427,495.030599 42.6660156,461.255859 Z" id="Path-3" fill="#FFC359"></path>
                    <path d="M41.9042969,467.574219 C41.7220244,467.959194 38.6947552,481.614258 45.1425781,493.722656 C49.4411267,501.794922 54.5954236,506.929036 60.6054687,509.125 L62.1650391,505.831055 C54.3242948,501.196465 49.5163521,497.160332 47.7412109,493.722656 C40.7323233,480.149491 42.0927717,467.176144 41.9042969,467.574219 Z" id="Path-4" fill="#0D3C61"></path>
                    <path d="M92.9931641,242.213867 C101.593424,224.257487 113.094076,211.80078 127.495117,204.843748" id="Path-5" stroke="#0D3C61" stroke-width="3"></path>
                    <path d="M92.3134766,361.149414 C87.0146484,349.165039 78.8313802,340.116862 67.7636719,334.004883" id="Path-6" stroke="#0D3C61" stroke-width="3"></path>
                </g>
                <g id="bucket" transform="translate(502.000000, 684.000000)">
                    <path d="M99.6942073,30 L57.8904129,30 C56.2815704,25.448166 53.0306587,21.6720148 48.8494389,19.3833079 C51.7760986,8.2285881 61.9271045,0 74,0 C88.3594035,0 100,11.6405965 100,26 C100,27.3602591 99.895541,28.6961205 99.6942073,30 Z" id="Combined-Shape" stroke="#0D3C61" stroke-width="3"></path>
                    <path d="M20.3132371,33 C21.962269,23.9007347 29.925258,17 39.5,17 C49.074742,17 57.037731,23.9007347 58.6867629,33 L20.3132371,33 Z" id="Combined-Shape" stroke="#0D3C61" stroke-width="3"></path>
                    <rect id="Rectangle-5" fill="#0D3C61" x="0" y="28" width="41" height="3"></rect>
                    <rect id="Rectangle-4" fill="#64B5F6" x="2" y="30" width="105" height="13"></rect>
                    <polygon id="Rectangle-8" fill="#64B5F6" points="3.41796875 47 15.0927734 47 23.0849609 131 14.0424805 131"></polygon>
                    <polygon id="Rectangle-8-Copy" fill="#64B5F6" points="18.9189453 47 29.2929688 47 35.1767578 131 26.1630859 131"></polygon>
                    <polygon id="Rectangle-8-Copy-2" fill="#64B5F6" points="33.0078125 47 45.8535156 47 47.3144531 131 38.1474609 131"></polygon>
                    <polygon id="Rectangle-8-Copy-3" fill="#64B5F6" points="48.8583984 47 60.3427734 47 59.2470703 131 50.1357422 131"></polygon>
                    <polygon id="Rectangle-8-Copy-4" fill="#64B5F6" points="63.5439453 47 75.5390625 47 70.9160156 131 61.9785156 131"></polygon>
                    <polygon id="Rectangle-8-Copy-5" fill="#64B5F6" points="78.0166016 47 90.4472656 47 82.9980469 131 74.2939453 131"></polygon>
                    <polygon id="Rectangle-8-Copy-6" fill="#64B5F6" points="93.7226562 47 105.817383 47 94.9667969 131 86.4306641 131"></polygon>
                    <polygon id="Rectangle-9" fill="#64B5F6" points="14.1416016 134 95 134 93.7773438 148 15.2949219 148"></polygon>
                </g>
                <g id="books" transform="translate(524.000000, 478.000000)">
                    <g id="book">
                        <path d="M0,0 L28,0 L28,92 L0,92 L0,0 Z M8,8 L8,47 L19,47 L19,8 L8,8 Z" id="Combined-Shape" fill="#FFC359"></path>
                        <circle id="Oval-6" fill="#0D3C61" cx="14.5" cy="69.5" r="5.5"></circle>
                    </g>
                    <g id="book-copy" transform="translate(28.000000, 0.000000)">
                        <path d="M0,0 L28,0 L28,92 L0,92 L0,0 Z M8,8 L8,47 L19,47 L19,8 L8,8 Z" id="Combined-Shape" fill="#A797F2"></path>
                        <circle id="Oval-6" fill="#0D3C61" cx="14.5" cy="69.5" r="5.5"></circle>
                    </g>
                    <g id="book-copy-2" transform="translate(56.000000, 0.000000)">
                        <path d="M0,0 L28,0 L28,92 L0,92 L0,0 Z M8,8 L8,47 L19,47 L19,8 L8,8 Z" id="Combined-Shape" fill="#FF819F"></path>
                        <circle id="Oval-6" fill="#0D3C61" cx="14.5" cy="69.5" r="5.5"></circle>
                    </g>
                </g>
                <g id="glass" transform="translate(655.000000, 528.000000)">
                    <polygon id="Rectangle-23" fill="#FF819F" points="0 0 25 0 22.996582 42 3.609375 42"></polygon>
                    <polygon id="Rectangle-24" fill="#0D3C61" points="0.422119141 3 14 3 14 6 0.682861328 6"></polygon>
                    <polygon id="Rectangle-24-Copy" fill="#0D3C61" points="19 3 24.9567871 3 24.6938477 6 19 6"></polygon>
                </g>
                <g id="fire" transform="translate(650.000000, 470.000000)" stroke-width="2">
                    <path d="M16.734375,18.2509766 L16.734375,0.159179688 C5.93033854,1.91764323 0.508789062,7.94824219 0.469726562,18.2509766 C0.411132812,33.7050781 18.3193359,32.8730469 16.734375,33.3017578" id="Path-16" stroke="#0D3C61"></path>
                    <path d="M17.0029297,17.8007812 C24.7815755,19.5540365 28.9104818,24.1380208 29.3896484,31.5527344 C30.1083984,42.6748047 17.0029297,44.7041016 17.0029297,44.0791016" id="Path-17" stroke="#0D3C61"></path>
                    <path d="M16.9169922,32.7929688 L16.9169922,44.4921875" id="Path-18" stroke="#634082"></path>
                </g>
                <g id="shrit" transform="translate(735.000000, 469.000000)">
                    <path d="M36.4140625,82.0927734 L42.5117187,98.5439453 L36.4140625,100.813477 L6.73242187,100.813477 C2.59049479,97.7190755 0.487304687,94.2639974 0.422851562,90.4482422 C0.326171875,84.7246094 6.27133873,77.4912109 13.8691406,79.7919922 C21.4669425,82.0927734 25.2167969,85.5322266 33.8642578,83.1640625" id="Path-19" fill="#FE9FB1"></path>
                    <path d="" id="Path-21" stroke="#979797"></path>
                    <path d="M186.476562,101.288086 L123.402344,101.288086 C128.094727,88.5940755 131.752441,80.4638672 134.375488,76.8974609 C136.998535,73.3310547 156.166016,68.7563477 191.87793,63.1733398 L186.476562,101.288086 Z" id="Path-22" fill="#FF819F"></path>
                    <path d="M123.836914,100.921875 C125.650716,93.2259115 127.640625,87.6627604 129.806641,84.2324219" id="Path-20" stroke="#0D3C61" stroke-width="3"></path>
                    <path d="M318.504883,101.71582 C317.153971,94.976888 314.891276,88.0677083 311.716797,80.9882812 C308.542318,73.9088542 304.708659,72.4335937 300.21582,76.5625 L293.331055,101.71582 L318.504883,101.71582 Z" id="Path-23" fill="#FF819F"></path>
                    <path d="M191.531457,63.0351563 L185.890625,101.00293 L294.322568,101.00293 L301.227386,76.5585938 L365.966434,101.00293 L378.794715,101.00293 L388.654394,91.1845703 C392.316813,83.2724609 390.897119,75.9267578 384.395311,69.1474609 C377.893503,62.3681641 356.541822,39.414388 320.340268,0.286132812 L306.791673,10.9003906 L314.960477,26.4238281 C302.150515,18.7929688 292.385699,15.4042969 285.666031,16.2578125 C278.946362,17.1113281 285.988242,20.5 306.791673,26.4238281 L191.531457,63.0351563 Z" id="Path-24" fill="#FFC359"></path>
                    <path d="M283.324219,17.1337891 C280.529948,29.3597005 274.057943,35.2558594 263.908203,34.8222656 C253.758464,34.3886719 249.165365,25.304362 250.128906,7.56933594 L223.173828,0.603515625 C217.203776,0.00130208333 208.66276,2.32324219 197.550781,7.56933594 C186.438802,12.8154297 132.769206,37.5963542 36.5419922,81.9121094 L42.3876953,98.03125 L191.71582,63.2050781 L310.864258,26.9394531 L283.324219,17.1337891 Z" id="Path-25" fill="#FFC359"></path>
                    <path d="M317.714844,31.9628906 L332.811523,55.8496094" id="Path-26" stroke="#FFFFFF" stroke-width="2"></path>
                    <polyline id="Path-27" stroke="#FFFFFF" stroke-width="2" points="164.276367 68.0097656 192.169684 61.6723161 201.919922 59.4570312"></polyline>
                    <path d="M192.560547,61.8027344 L194.383789,72.3466797" id="Path-28" stroke="#FFFFFF" stroke-width="2"></path>
                </g>
                <g id="face" transform="translate(971.000000, 376.000000)">
                    <polygon id="Path-30" fill="#FE9FB1" points="12.5683594 55.6376953 19.5581055 37.1010742 26.5864258 25.5541992 49.4604492 34.7587891 69.9189453 35.9238281 55.050293 64.0361328 45.6816406 71.8999023 16.6357422 61.3564453"></polygon>
                    <polygon id="Path-33" fill="#3F327A" points="55.859375 89.5908203 62.0244141 91.9731445 61.4926758 81.5620117"></polygon>
                    <path d="M16.1220703,94.230957 L16.1220703,100.201172 L14.1386719,100.201172 C12.5914714,116.292643 16.6647135,125.437012 26.3583984,127.634277 C40.8989258,130.930176 48.3959961,113.437988 48.9960937,109.221191 C49.3961589,106.409993 53.2879232,97.6199544 60.6713867,82.8510742 L61.3188477,92.2353516 L69.9560547,103.751953 L84.1508789,93.2734375 L79.2172852,88.1733398 C78.6954753,78.8351237 79.1586914,72.0151367 80.6069336,67.7133789 C82.0551758,63.4116211 79.7596029,60.6031901 73.7202148,59.2880859 C67.1534831,57.5322266 62.5613607,59.3870443 59.9438477,64.8525391 C57.3263346,70.3180339 52.7467448,80.1108398 46.2050781,94.230957 L16.1220703,94.230957 Z" id="Path-32" fill="#FE9FB1"></path>
                    <path d="M19.4785156,37.6220703 L26.7998047,26.1806641 L47.9013672,36.3378906 C51.6659071,37.1940104 54.3472222,37.6220703 55.9453125,37.6220703 C57.5434028,37.6220703 60.1153429,37.1940104 63.6611328,36.3378906 L51.4365234,66.0117188 C47.6995443,69.5104167 42.234375,69.5104167 35.0410156,66.0117188 C27.8476562,62.5130208 20.2809245,58.8502604 12.3408203,55.0234375 L1.37597656,75.890625 C-0.0719401042,82.4733073 0.994140625,86.7936198 4.57421875,88.8515625 C8.15429687,90.9095052 15.077474,93.9384766 25.34375,97.9384766 C37.2363281,100.40332 44.7555339,98.2981771 47.9013672,91.6230469 C51.0472005,84.9479167 55.4303385,75.2596026 61.0507813,62.5581047 C63.3658972,60.7673692 65.2942826,59.6783395 66.8359375,59.2910156 C68.3775924,58.9036917 70.7838424,58.9036917 74.0546875,59.2910156 L80.9365234,67.9990234 C88.7561849,56.9046224 91.2184245,46.7789714 88.3232422,37.6220703 C85.4280599,28.4651693 81.5416667,24.1777344 76.6640625,24.7597656 C75.6281888,18.9264676 74.30397,15.4088895 72.6914063,14.2070313 C71.0788425,13.005173 67.1986342,12.6438449 61.0507813,13.1230469 L45.1236059,2.19238281 C37.2925041,-0.129882813 31.8391927,0.736328125 28.7636719,4.79101562 C25.688151,8.84570312 24.1503906,10.3974609 24.1503906,9.44628906 C11.500651,16.273112 9.10709635,25.2369792 16.9697266,36.3378906" id="Path-29" fill="#3F327A"></path>
                    <path d="M32.2226562,75.3222656 C36.616862,75.8753255 40.386556,75.324056 43.5317383,73.668457" id="Path-31" stroke="#FFFFFF" stroke-width="2"></path>
                </g>
            </g>
            <g id="left" transform="translate(0.000000, 321.000000)">
                <path d="M278.119141,431.421875 L250.089844,404.416016 C247.56901,395.607422 250.476562,391.294271 258.8125,391.476562 C262.987147,391.567854 265.823806,398.173257 268.242187,399.517578 C269.849283,400.410925 271.54069,400.410925 273.316406,399.517578 C276.220052,395.233724 274.528646,390.311198 268.242187,384.75 C261.955729,379.188802 255.904948,373.652995 250.089844,368.142578 C246.235677,358.067057 249.143229,353.699219 258.8125,355.039062 C263.280061,355.65812 266.96132,361.517469 268.242188,362.890625 C270.409349,365.213934 273.133884,362.331081 273.316406,358.189453 C273.376229,356.832014 266.805953,352.662817 268.242188,351.681641 L250.136719,329.617187 C249.634115,320.871094 252.526042,317.097656 258.8125,318.296875 C268.242188,320.095703 260.009766,331.261719 273.316406,324.779297 C278.763085,322.12591 270.347694,317.598604 263.280667,310.669922 C260.318564,307.765805 255.937248,302.476743 250.136719,294.802734 C249.634115,284.567057 252.526042,281.011068 258.8125,284.134766 C268.242188,288.820312 263.058594,294.642578 273.316406,291.507812 C283.574219,288.373047 263.3125,241.699219 278.119141,240.875 C292.925781,240.050781 288.447266,254.910156 287.941406,259.126953 C287.435547,263.34375 287.527344,293.833984 294.3125,288.984375 C298.835938,285.751302 302.573568,283.429687 305.525391,282.019531 C313.179036,282.445312 315.092448,286.70638 311.265625,294.802734 C307.438802,302.899089 299.664062,309.210286 287.941406,313.736328 C286.515625,321.098307 287.927734,324.779297 292.177734,324.779297 C296.427734,324.779297 301.972656,322.61849 308.8125,318.296875 C317.88151,317.804687 319.600911,321.578125 313.970703,329.617187 C308.340495,337.65625 301.076172,345.011068 292.177734,351.681641 C287.559245,359.154297 287.559245,362.890625 292.177734,362.890625 C296.796224,362.890625 301.245443,360.273437 305.525391,355.039062 C312.958984,353.134115 315.774089,356.483073 313.970703,365.085938 C311.265625,377.990234 287.941406,382.785156 287.941406,396.365234 C287.941406,409.945312 302.238281,396.365234 305.525391,396.365234 C307.716797,396.365234 300.149614,408.050781 282.823843,431.421875 L278.119141,431.421875 Z" id="Path-36" fill="#A6D5FA"></path>
                <rect id="Rectangle-25" fill="#64B5F6" x="280" y="298" width="3" height="127"></rect>
                <path d="M211.863281,500.4375 C230.173177,491.354167 248.671875,472.091146 267.359375,442.648437 C295.390625,398.484375 317.476562,375.8125 339.804688,374.953125 C354.690104,374.380208 381.299479,389.66276 419.632812,420.800781 C487.114583,478.147135 544.653646,498.938802 592.25,483.175781 C663.644531,459.53125 672.796875,451.359375 704.835937,470.613281 C736.875,489.867188 713.289062,514.121094 709.0625,510.792969 C706.244792,508.574219 540.511719,509.683594 211.863281,514.121094 L211.863281,500.4375 Z" id="Path-35" fill="#E8F4FD"></path>
                <path d="M104.191406,514.324219 C114.136719,495.235677 130.544271,484.986979 153.414062,483.578125 C187.71875,481.464844 249.101562,526.125 268.960938,508.542969 C288.820312,490.960938 311.910156,454.34375 334.222656,452.371094 C356.535156,450.398438 405.835938,496.882812 516.550781,514.324219" id="Path-34" fill="#A6D5FA"></path>
                <polygon id="Rectangle-10-Copy" fill="#64B5F6" points="30 511 1277 511 1277 514 194.244141 514 30 514"></polygon>
            </g>
            <g id="lines" transform="translate(770.000000, 832.000000)">
                <polygon id="Rectangle-10" fill="#64B5F6" points="0 0 1247 0 1247 3 164.244141 3 0 3"></polygon>
                <rect id="Rectangle-11" fill="#0D3C61" x="213" y="0" width="7" height="3"></rect>
                <rect id="Rectangle-11-Copy" fill="#0D3C61" x="231" y="0" width="11" height="3"></rect>
                <rect id="Rectangle-11-Copy-2" fill="#0D3C61" x="248" y="0" width="29" height="3"></rect>
                <rect id="Rectangle-11-Copy-3" fill="#0D3C61" x="371" y="0" width="23" height="3"></rect>
                <rect id="Rectangle-11-Copy-4" fill="#0D3C61" x="412" y="0" width="78" height="3"></rect>
                <rect id="Rectangle-11-Copy-5" fill="#0D3C61" x="673" y="0" width="81" height="3"></rect>
                <rect id="Rectangle-11-Copy-6" fill="#0D3C61" x="777" y="0" width="100" height="3"></rect>
                <rect id="Rectangle-11-Copy-7" fill="#64B5F6" x="394" y="20" width="177" height="3"></rect>
                <rect id="Rectangle-11-Copy-10" fill="#64B5F6" x="518" y="41" width="240" height="3"></rect>
                <rect id="Rectangle-11-Copy-8" fill="#64B5F6" x="616" y="20" width="291" height="3"></rect>
                <rect id="Rectangle-11-Copy-9" fill="#64B5F6" x="988" y="20" width="88" height="3"></rect>
            </g>
        </g>
    </g>
</svg>