<?xml version="1.0" encoding="UTF-8"?>
<svg width="1000px" height="1000px" viewBox="0 0 1000 1000" version="1.1" xmlns="http://www.w3.org/2000/svg" xmlns:xlink="http://www.w3.org/1999/xlink">
    <!-- Generator: Sketch 52.5 (67469) - http://www.bohemiancoding.com/sketch -->
    <title>rahul</title>
    <desc>Created with Sketch.</desc>
    <g id="rahul" stroke="none" stroke-width="1" fill="none" fill-rule="evenodd">
        <g id="face" transform="translate(196.000000, 66.000000)">
            <polygon id="Path-218" fill="#FFE1DD" points="68.2773437 454 68.2773437 538.289063 68.2773437 673 84.6425781 738 127.521484 798 202.689453 847.332031 282.056641 867.220703 352.263672 861.947266 413.882812 842 468.492188 813 514.398437 757 535.484375 710.421875 544.292969 614.201172 544.292969 494 522.048828 473 522.048828 437.318359 496.128906 432.935545 482.558594 320 440.673828 304 327.128906 308 169.201172 298.900391 99.5996094 332.679688 102.425781 407.521484"></polygon>
            <polygon id="Path-219" fill="#FFEFED" transform="translate(575.813477, 522.181641) scale(-1, 1) translate(-575.813477, -522.181641) " points="608.626953 464 582.015625 468.632812 561.445312 480.339355 551.230469 493.623047 543 518.30666 548.708984 548 561.445312 564 582.015625 574.292969 603.166016 580.363281 608.626953 578"></polygon>
            <polygon id="Path-219-Copy" fill="#FFEFED" points="66.1601563 463 39.5488281 467.632812 18.9785156 479.339355 8.76367188 492.623047 0.533203125 517.30666 6.2421875 547 18.9785156 563 39.5488281 573.292969 60.6992188 579.363281 66.1601562 577"></polygon>
            <path d="M55.8867188,446.625 L55.8867188,236.215332 L59.4238281,207.507813 L121.199219,134 L191.003906,81.3193359 L290.806641,6.1328125 L293.490234,63.0976563 L340,39 L392.373047,18.828125 L432.978516,9.54882813 L435.546875,75.8261719 L435.546875,81.3193359 L479.164062,70.2232956 L530.095703,66.3359375 L549.986328,70.2232956 C536.832695,86.179363 529.028658,99.3262853 526.574219,109.664063 C524.119779,120.00184 525.293607,134.780485 530.095703,154 L559.126953,152 L570.236328,159.676367 L545.414062,184.26928 L534.244141,240 L537.640625,316.907227 L545.414062,345.529297 L549.986328,382.535156 L545.414062,421.52855 L541.322266,463 L541.322266,486.457031 L530.095703,486 L521.765625,467.632812 L521.765625,446.625 L510.458984,442 L487.445312,432.935545 L484.878906,343.480943 L466.1875,312.271484 L414.734375,308 L330.685547,308 L309.324219,319.42914 L277.560547,317.725586 L263.509766,300.8125 L174.748047,303 L121.199219,317.898704 L109.875,341 L109.875,412.792969 L100.326172,442 L70.4960938,453 L55.8867188,453 L55.8867188,446.625 Z" id="Path-217" fill="#000000"></path>
            <circle id="Oval" stroke="#000000" stroke-width="13" cx="187" cy="521" r="12"></circle>
            <circle id="Oval-Copy" stroke="#000000" stroke-width="13" cx="410" cy="521" r="12"></circle>
            <path d="M64.8632813,457.884881 L64.8632813,638.158203 C67.453125,689.807197 77.0722656,728.109932 93.7207031,753.066406 C118.693359,790.501118 161.044922,842.148438 249.804688,860.958984 C308.977865,873.499349 370.365885,865.482676 433.96875,836.908965 C480.083333,806.302988 512.045573,770.333333 529.855469,729 C537.203203,711.947325 538.905877,684.816552 541.513672,651 C543.989099,618.899928 543.989099,554.321803 541.513672,457.265625 C552.358724,390.304036 552.358724,350.170573 541.513672,336.865234 C535.777216,329.827418 532.091779,251.369444 539.222656,203.640344 C542.206523,183.668433 554.835921,170.419337 557.582031,167.884202 C560.188243,165.478218 566.268321,162.742273 575.822266,159.676367 C569.655321,155.298881 563.575243,152.740092 557.582031,152 C551.588819,151.259908 542.346632,151.926574 529.855469,154 C527.042618,128.491655 527.042618,110.824989 529.855469,101 C532.66832,91.1750113 540.684596,80.8416779 553.904297,70 C536.564822,65.8391057 521.148481,64.4097437 507.655273,65.7119141 C494.162066,67.0140844 470.481076,72.2165583 436.612305,81.3193359 L436.612305,5.8125 C409.1229,11.4517899 386.568538,17.6594722 368.949219,24.4355469 C351.3299,31.2116216 326.637191,43.1743168 294.871094,60.3236326 L294.871094,0.24609375 C133.929688,112.335937 53.4589844,188.69987 53.4589844,229.337891 C53.4589844,269.975911 53.4589844,344.196615 53.4589844,452 L64.8632813,457.884881 Z" id="Path-211" stroke="#000000" stroke-width="13"></path>
            <path d="M62.8652344,455.601427 C67.317874,455.083237 70.1780888,454.68223 71.4458786,454.398405 C88.48391,450.584038 99.2610651,444.784569 103.777344,437 C114.729211,418.122606 113.016716,384.064263 109.558594,340.530273 C108.486749,327.036918 128.182337,309.233517 165.271484,303 C182.175256,300.159009 215.886153,300.240674 266.404178,303.244996 C269.646006,313.355786 275.206762,318.575475 283.086447,318.904065 C287.974775,319.107913 310.614544,320.298576 322.775391,317 C326.82938,315.900373 329.114536,312.900373 329.630859,308 L444.619141,307.383789 C472.272786,308.536784 486.099609,326.393229 486.099609,360.953125 C486.099609,395.513021 486.099609,417.186361 486.099609,425.973145 C484.037109,436.657715 492.632813,442 511.886719,442 C513.900214,442 519.621927,442.697213 521.254242,446.625 C522.220905,448.95105 522.220905,454.412033 521.254242,463.00795 C519.392039,479.134161 525.271484,487.464844 538.892578,488" id="Path-212" stroke="#000000" stroke-width="13"></path>
            <path d="M138.363281,450.847656 L243.888672,450.847656" id="Path-213" stroke="#000000" stroke-width="13"></path>
            <path d="M360.363281,450.847656 L465.888672,450.847656" id="Path-213-Copy" stroke="#000000" stroke-width="13"></path>
            <polyline id="Path-214" stroke="#000000" stroke-width="13" points="285.345703 477.291016 285.345703 612 336.871094 612"></polyline>
            <path d="M262.033203,727 L340,727" id="Path-215" stroke="#000000" stroke-width="13"></path>
            <path d="M65.0976563,462.488281 C22.671875,469.238308 1.45898437,487.844434 1.45898437,518.30666 C1.45898437,564 21.9023438,571.189453 65.0976563,583.980469" id="Path-216" stroke="#000000" stroke-width="13"></path>
            <path d="M607.638672,461 C565.212891,467.750026 544,486.356153 544,516.818379 C544,562.511719 564.443359,569.701172 607.638672,582.492188" id="Path-216-Copy" stroke="#000000" stroke-width="13" transform="translate(575.819336, 521.746094) scale(-1, 1) translate(-575.819336, -521.746094) "></path>
        </g>
    </g>
</svg>