<?xml version="1.0" encoding="UTF-8"?>
<svg width="1699px" height="1500px" viewBox="0 0 1699 1500" version="1.1" xmlns="http://www.w3.org/2000/svg" xmlns:xlink="http://www.w3.org/1999/xlink">
    <!-- Generator: Sketch 52.5 (67469) - http://www.bohemiancoding.com/sketch -->
    <title>looperchat</title>
    <desc>Created with Sketch.</desc>
    <g id="looperchat" stroke="none" stroke-width="1" fill="none" fill-rule="evenodd">
        <g id="all" transform="translate(45.000000, 217.000000)">
            <g id="leaf" transform="translate(524.000000, 0.000000)">
                <path d="M262.640625,251.547701 C285.50146,181.663898 306.625158,132.319546 326.011719,103.514644 C345.39828,74.7097426 380.564947,40.4168575 431.511719,0.635988763 C572.727865,65.9203296 629.740885,201.526693 602.550781,407.455078 C575.360677,613.383464 468.61849,614.898438 282.324219,412 L262.640625,251.547701 Z" id="Path-240" fill="#D99AFF"></path>
                <path d="M0.676269531,420.363281 L162.34375,402.326172" id="Path-239" stroke="#FFA9CA" stroke-width="5"></path>
                <path d="M435.003906,2.61862118 L389.914062,412" id="Path-241" stroke="#E5C1FB" stroke-width="5"></path>
                <path d="M413.523438,186.92385 L549.512695,96" id="Path-242" stroke="#E5C1FB" stroke-width="5"></path>
                <path d="M418.386719,477.600098 L606.536133,351.34668" id="Path-243" stroke="#E5C1FB" stroke-width="5"></path>
                <path d="M396.605469,344.623047 L352.472656,306" id="Path-244" stroke="#E5C1FB" stroke-width="5"></path>
            </g>
            <g id="leaf" transform="translate(471.000000, 159.000000)">
                <path d="M185.441406,422 C109.875345,341.220844 62.0198767,281.662901 41.875,243.326172 C-0.283468927,163.096452 -2.22705005,80.6693589 2.54430968,31.3179912 C3.09932395,25.5773397 3.09932395,15.4713426 2.54430968,1 C263.147582,-11.7903646 426.234375,111.126628 491.804687,369.750977 C492.933409,374.202911 494.540217,380.720885 496.625113,389.304898 L185.441406,422 Z" id="Path-237" fill="#FF5998"></path>
                <polygon id="Path-238" stroke="#FBB2CE" stroke-width="5" points="5.00195313 2.68847656 215.503906 243.326172 322.78125 363.954102"></polygon>
            </g>
            <g id="leaf" transform="translate(908.000000, 386.000000)">
                <path d="M352.097656,2.91796875 C237.363281,-12.5429687 139.60026,43.1510417 58.8085937,170 C-21.9830729,296.848958 -18.921875,433.638021 67.9921875,580.367187 C337.742187,417.24349 434.886719,227.121094 359.425781,10 C358.940735,8.60439401 358.218995,6.52933589 357.26056,3.77482563 L352.097656,2.91796875 Z" id="Path-245" fill="#FF5998"></path>
                <path d="M134.3125,344.019531 L325.960937,344.019531" id="Path-246" stroke="#FFC5DB" stroke-width="5"></path>
                <path d="M127.089844,308 L356.5,4.5" id="Path-247" stroke="#FFC5DB" stroke-width="5"></path>
                <path d="M196.747262,215.548828 L173.03125,46.9804687" id="Path-248" stroke="#FFC5DB" stroke-width="5"></path>
            </g>
            <path d="M620.377441,641.630371 L599,704.263672 C593.908854,740.619141 603.273438,770.864583 627.09375,795 C650.914063,819.135417 663.338542,830.014323 664.367188,827.636719 L696.636719,835.645508 L696.636719,742.998047 C691.240885,716.228135 695.666667,695.035982 709.914063,679.421589 C724.161458,663.807196 697.902995,649.666667 631.138672,637 L620.377441,641.630371 Z" id="Path-224" fill="#FFE1DD"></path>
            <path d="M1029.54541,645 L1045.96289,701.075195 C1054.94466,738.435221 1048.4362,768.210612 1026.4375,790.401367 C1004.4388,812.592122 985.049154,830.706706 968.268555,844.745117 L970.225586,719.520508 L951.010742,679.421589 L1021.61035,646 L1029.54541,645 Z" id="Path-225" fill="#FFE1DD"></path>
            <path d="M620.212891,642 L697.865234,675 L681.142578,709 C674.177734,735.921875 679.751953,754.588542 697.865234,765 C715.978516,775.411458 807.174479,760.343099 971.453125,719.794922 L953.015625,679.421589 L1029.82422,645 L994.009766,558.347656 C977.750651,525.449219 952.133464,509 917.158203,509 C882.182943,509 818.796224,509 726.998047,509 C695.05013,511.773438 672.904297,525.966797 660.560547,551.580078 C648.216797,577.193359 634.767578,607.333333 620.212891,642 Z" id="Path-223" fill="#9E00E8"></path>
            <path d="M695.808594,719.042969 L695.808594,835.645508 C761.761719,854.011393 805.002604,868.462891 825.53125,879 C827.784098,880.15636 829.891227,880.025654 831.852638,878.607883 C842.460353,870.940284 888.171583,854.006537 968.986328,827.806641 L971.297363,719.78418 L695.808594,719.042969 Z" id="Path-226" fill="#E6BEFF"></path>
            <circle id="Oval" fill="#FFFFFF" cx="834.5" cy="788.5" r="11.5"></circle>
            <path d="M779.070312,509 C785.454427,516.333333 797.909505,520.666667 816.435547,522 C829.741824,522.957663 841.698956,518.26635 852.306944,507.926061 C855.081134,505.22188 849.8421,485.538193 836.589844,448.875 C826.271018,457.180605 817.731304,462.222272 810.970703,464 C804.210102,465.777728 793.576638,465.777728 779.070312,464 L779.070312,509 Z" id="Path-222" fill="#FFE1DD"></path>
            <path d="M734.015625,366.063477 C732.272135,402.416992 739.863281,431.161458 756.789062,452.296875 C782.177734,484 830.005859,467.412109 840.207031,448.417969 C847.007812,435.755208 852.897461,416.161458 857.875977,389.636719 L871.927734,377.03125 L871.927734,350 L840.207031,320 L785.833984,331.339355 L756.789062,356 L734.015625,366.063477 Z" id="Path-221" fill="#FFEFED"></path>
            <path d="M799.689453,336 C786.442758,342.005159 774.319711,349.456426 763.320312,358.3538 C734.651042,370.88486 715.442708,370.10026 705.695312,356 C698.871395,346.128746 699.109804,330.872021 710.576172,321.425781 C713.851092,318.727832 721.136248,316.585905 732.431641,315 C732.787109,301.666667 734.102214,292.666667 736.376953,288 C739.789062,281 750.806641,268.026855 773.150391,273 C776.389658,273.720978 779.944157,274.742301 783.813888,276.063972 C785.713397,276.712731 788.515761,275.609056 792.22098,272.752947 C806.6244,261.650298 817.910156,255.585937 839.238281,264.792969 C845.875787,267.65828 851.699801,275.084767 856.710322,287.072429 C857.303049,288.490528 859.435497,289.127056 863.107665,288.982014 C883.072627,288.193442 888.707031,305.460344 888.707031,309.884881 C888.707031,314.309418 887.386719,325.82666 880.179687,334 C879.100748,335.223602 878.797716,338.103367 879.270591,342.639297 C879.94784,349.135643 882.480698,364.849522 876.494141,377.03125 C874.070006,381.963994 867.475399,388.28691 856.710322,396 L856.710322,388.917969 C863.545368,384.095349 866.962891,378.403366 866.962891,371.84202 C866.962891,365.280673 862.390625,362.333333 853.246094,363 C849.871311,347.042678 846.160374,336.709344 842.113281,332 C836.097656,325 819.559496,326.992261 799.689453,336 Z" id="Path-220" fill="#570080"></path>
            <g id="shoe" transform="translate(485.000000, 947.000000)">
                <path d="M157.884766,10 L122.845703,10 C84.9042969,3.98828125 56.7356771,0.982421875 38.3398437,0.982421875 C19.9440104,0.982421875 7.41861979,9.35481771 0.763671875,26.0996094 C-1.21528437,51.563151 11.3101063,64.2949219 38.3398437,64.2949219 C65.3695812,64.2949219 104.860141,59.9262695 156.811523,51.1889648 L153.339844,32.6386719 L157.884766,10 Z" id="Path-230" fill="#FF7BA2"></path>
                <path d="M37.1972656,1.04101563 L37.5244141,64.4008789 C52.6844949,63.9173678 65.6265522,63.1657402 76.3505859,62.1459961 C87.0746197,61.126252 103.095941,59.1223457 124.414551,56.1342773 L156.339355,51.253418 C150.649251,43.6925456 147.804199,36.9676107 147.804199,31.0786133 C147.804199,25.1896159 150.649251,18.1634115 156.339355,10 L122.001953,10 C106.674919,7.51621727 93.6018397,5.69004539 82.7827148,4.52148438 C71.96359,3.35292336 57.3877436,2.19276711 39.0551758,1.04101563" id="Path-231" fill="#FF5998"></path>
                <path d="M101.120117,20.5537109 L101.120117,45" id="Path-232" stroke="#FFFFFF" stroke-width="4"></path>
                <path d="M118.120117,20.5537109 L118.120117,45" id="Path-232-Copy" stroke="#FFFFFF" stroke-width="4"></path>
            </g>
            <g id="shoe-copy" transform="translate(1091.000000, 979.500000) scale(-1, 1) translate(-1091.000000, -979.500000) translate(1012.000000, 947.000000)">
                <path d="M157.884766,10 L122.845703,10 C84.9042969,3.98828125 56.7356771,0.982421875 38.3398437,0.982421875 C19.9440104,0.982421875 7.41861979,9.35481771 0.763671875,26.0996094 C-1.21528437,51.563151 11.3101063,64.2949219 38.3398437,64.2949219 C65.3695812,64.2949219 104.860141,59.9262695 156.811523,51.1889648 L153.339844,32.6386719 L157.884766,10 Z" id="Path-230" fill="#FF7BA2"></path>
                <path d="M37.1972656,1.04101563 L37.5244141,64.4008789 C52.6844949,63.9173678 65.6265522,63.1657402 76.3505859,62.1459961 C87.0746197,61.126252 103.095941,59.1223457 124.414551,56.1342773 L156.339355,51.253418 C150.649251,43.6925456 147.804199,36.9676107 147.804199,31.0786133 C147.804199,25.1896159 150.649251,18.1634115 156.339355,10 L122.001953,10 C106.674919,7.51621727 93.6018397,5.69004539 82.7827148,4.52148438 C71.96359,3.35292336 57.3877436,2.19276711 39.0551758,1.04101563" id="Path-231" fill="#FF5998"></path>
                <path d="M101.120117,20.5537109 L101.120117,45" id="Path-232" stroke="#FFFFFF" stroke-width="4"></path>
                <path d="M118.120117,20.5537109 L118.120117,45" id="Path-232-Copy" stroke="#FFFFFF" stroke-width="4"></path>
            </g>
            <path d="M988.810547,1001.81152 L1014.03857,998.27417 C1019.65413,989.489827 1022.46191,982.456706 1022.46191,977.174805 C1022.46191,971.892904 1019.50716,965.167969 1013.59766,957 L988.810547,957 L988.810547,1001.81152 Z" id="Path-233" fill="#FFE1DD"></path>
            <path d="M663.929688,957 L641.171875,957 C635.566406,963.856771 632.763672,970.73763 632.763672,977.642578 C632.763672,984.547526 635.566406,991.450684 641.171875,998.352051 L670.522461,995.167969 L663.929688,957 Z" id="Path-229" fill="#FFE1DD"></path>
            <path d="M989.507813,957 C904.104413,911.888586 838.194907,880.888586 791.779297,864 C745.363686,847.111414 678.590249,829.519617 591.458984,811.224609 C540.912109,802.88737 507.477865,809.432292 491.15625,830.859375 C487.414666,835.771342 485.619778,843.057432 485.771587,852.717643 C486.111863,874.370815 516.799329,897.21884 577.833984,921.261719 C667.282532,948.673794 736.244121,967.194628 784.71875,976.824219 C833.193379,986.45381 901.4564,994.815138 989.507813,1001.9082 L989.507813,957 Z" id="Path-227" fill="#6E04A0"></path>
            <path d="M662.699219,957 C846.36849,863.554687 974.736328,814.693359 1047.80273,810.416016 C1120.86914,806.138672 1161.25065,814.548503 1168.94727,835.645508 C1173.72591,862.561523 1159.46745,883.680339 1126.17188,899.001953 C1077.1619,921.55486 861.783533,984.326878 680.770092,995.489344 C678.471853,995.631068 674.859687,995.631068 669.933594,995.489344 L662.699219,957 Z" id="Path-228" fill="#570080"></path>
            <path d="M449.40625,493.149414 L483.640625,554.446777 C408.421875,525.482259 331.859375,523.333333 253.953125,548 C137.09375,585 47.078125,543.200195 20.140625,477.600098 C-6.796875,412 -9.8515625,327.064455 34.859375,306 C79.5703125,284.935545 147.429688,280.871091 253.953125,284.935545 C324.96875,287.645182 383.471354,328.485026 429.460938,407.455078 C436.991122,425.542188 441.86482,439.348829 444.082031,448.875 C446.299243,458.401171 448.073982,473.159309 449.40625,493.149414 Z" id="Path-234" fill="#EFE0FB"></path>
            <g id="user" transform="translate(92.000000, 312.000000)" fill="#FFFFFF">
                <path d="M0.625,182 L158.160156,185 C148.029948,130.333333 122.629557,103 81.9589844,103 C41.2884115,103 14.1770833,129.333333 0.625,182 Z" id="Path-235"></path>
                <path d="M39.6445313,35.0097656 C45.5859375,12.0839844 58.936849,0.62109375 79.6972656,0.62109375 C100.457682,0.62109375 113.142578,11.9576823 117.751953,34.6308594 C118.55013,58.8769531 111.108724,76.3333333 95.4277344,87 C83.9208192,94.8273395 72.9499316,94.5194345 62.5150717,86.0762851 C60.7359402,84.636738 52.9997494,79.2853724 46.1503906,65.03125 C44.2400272,61.0556144 42.0714074,53.1388648 39.6445313,41.2810011" id="Path-236"></path>
            </g>
            <g id="user-copy" transform="translate(199.000000, 329.000000)" fill="#FFFFFF">
                <path d="M0,131.804878 L115,134 C107.604991,94 89.0628125,74 59.3734657,74 C29.684119,74 9.89296371,93.2682927 0,131.804878 Z" id="Path-235"></path>
                <path d="M29,25.0365159 C33.3326089,8.3455053 43.0683978,1.58923689e-15 58.2073668,0 C73.3463358,0 82.5964509,8.25355164 85.9577122,24.7606549 C86.5397612,42.412913 81.1133181,55.1219511 69.6783831,62.8877692 C61.2872783,68.586428 53.287057,68.3622592 45.6777193,62.2152628 C44.3803361,61.167207 38.7389294,57.2711697 33.7442209,46.8935208 C32.3511404,43.9990774 30.7697334,38.2353239 29,29.6022603" id="Path-236"></path>
            </g>
        </g>
    </g>
</svg>