<?xml version="1.0" encoding="UTF-8"?>
<svg width="1000px" height="1000px" viewBox="0 0 1000 1000" version="1.1" xmlns="http://www.w3.org/2000/svg" xmlns:xlink="http://www.w3.org/1999/xlink">
    <!-- Generator: Sketch 52.5 (67469) - http://www.bohemiancoding.com/sketch -->
    <title>renjith</title>
    <desc>Created with Sketch.</desc>
    <g id="renjith" stroke="none" stroke-width="1" fill="none" fill-rule="evenodd">
        <g id="face" transform="translate(135.000000, 111.000000)">
            <polyline id="Path-206" fill="#FFE1DD" points="142.71875 315.558594 136.601562 529 136.601562 598 186.609375 675 255.996094 725.224609 304.636719 755 350.726562 779 393.773438 783.522461 446.753906 770 491.167969 742.587891 544.511719 699 587.976563 655 622.109375 608 628.191406 315.558594 142.71875 307.789062"></polyline>
            <polygon id="Path-207" fill="#FFEFED" points="135.03125 378.792969 115.90625 381.562012 99.0273438 392.845703 84.4746094 408 78.3242188 427 84.4746094 452 91.6347656 467.281001 115.90625 483.30666 135.03125 485.84202"></polygon>
            <polygon id="Path-207-Copy" fill="#FFEFED" transform="translate(657.353516, 418.524525) scale(-1, 1) translate(-657.353516, -418.524525) " points="685.707031 365 666.582031 367.769043 649.703125 379.052734 635.150391 394.207031 629 413.207031 635.150391 438.207031 642.310547 453.488032 666.582031 469.513692 685.707031 472.049051"></polygon>
            <path d="M139.385742,231.396484 L137.495117,95 C171.390951,34.6864837 207.647135,3.76744703 246.263672,2.24289009 C284.880208,0.718333156 353.74056,0.637369792 452.844727,2 L526.816406,0.102539062 C593.080729,21.7555339 626.212891,58.3880208 626.212891,110 C626.212891,161.611979 626.212891,227.945313 626.212891,309 C521.229949,275.115099 441.687632,254.156765 387.585937,246.125 C333.484243,238.093235 255.854035,235.718235 154.695312,239 L139.385742,231.396484 Z" id="Path-210" stroke="#979797" fill="#9E00E8"></path>
            <path d="M16.2402344,272 L78.5097656,294.880859 L138.197266,309 L249.519531,310.5 L495.203125,311.529297 L602.486328,309.480943 L568.076172,294.349609 L472.958984,262.994141 L359.423828,243 L245.240234,236.292969 L138.197266,238 L39.046875,259.152344 C31.8299118,260.559473 26.8064743,262.060124 23.9765625,263.654297 C21.1466507,265.24847 18.5678747,268.030371 16.2402344,272 Z" id="Path-208" fill="#570081"></path>
            <circle id="Oval" stroke="#000000" stroke-width="13" cx="269.5" cy="440.5" r="11.5"></circle>
            <circle id="Oval-Copy" stroke="#000000" stroke-width="13" cx="494.5" cy="440.5" r="11.5"></circle>
            <path d="M137.898438,315.558594 L137.898438,599.582031 C163.842673,641.65944 186.937725,672.132096 207.183594,691 C227.429463,709.867904 263.103942,734.201237 314.207031,764 C356.83724,789.85026 402.682292,789.85026 451.742188,764 C479.590613,749.326323 519.298095,723.881009 551.808594,693 C568.316899,677.319123 591.255701,649.98579 620.625,611 L626.289062,319.301949 L626.289062,96.9921875 C615.724121,67.4951113 604.811361,47.238814 593.550781,36.2232956 C582.290202,25.2077771 560.834473,13.800012 529.183594,2 L239.597656,2 C210.603792,13.0826032 189.905876,24.4159365 177.503906,36 C165.101937,47.5840635 151.900114,67.9147927 137.898438,96.9921875 L137.898438,238 C115.501356,240.195613 94.7279187,243.461238 75.578125,247.796875 C56.4283313,252.132512 31.5611438,259.200221 0.9765625,269 C33.3866783,280.777823 58.2538658,289.227693 75.578125,294.349609 C92.9023842,299.471525 113.675822,304.515304 137.898438,309.480943 L137.898438,315.558594 Z" id="Path-199" stroke="#000000" stroke-width="13"></path>
            <path d="M138.085938,310.5 L623.210938,311.863281 C520.503302,275.400664 439.649135,252.738555 380.648438,243.876953 C321.64774,235.015352 240.793573,233.389701 138.085938,239 C123.691368,239.931006 110.29228,241.597672 97.8886719,244 C57.9031453,251.744387 14.7592773,261.348224 14.7592773,268.20459 C14.7592773,274.533618 32.9189021,280.455015 65.5473633,290 C78.3245243,293.737774 102.504049,300.571107 138.085938,310.5 Z" id="Path-200" stroke="#000000" stroke-width="13"></path>
            <path d="M214.050781,378.792969 L324.824219,378.792969" id="Path-201" stroke="#000000" stroke-width="13"></path>
            <path d="M439.050781,378.792969 L549.824219,378.792969" id="Path-201-Copy" stroke="#000000" stroke-width="13"></path>
            <polyline id="Path-202" stroke="#000000" stroke-width="13" points="354.996094 419 354.996094 559.621094 402.046875 559.621094"></polyline>
            <path d="M319.394531,633 L446.707031,633" id="Path-203" stroke="#000000" stroke-width="13"></path>
            <path d="M365,675 L398.230469,675" id="Path-204" stroke="#000000" stroke-width="13"></path>
            <path d="M138.328125,375.030273 C117.568843,379.975381 103.840978,385.298623 97.1445313,391 C86.5142835,400.050628 78.0117188,412.720989 78.0117188,429 C78.0117188,476.491915 115.070313,490.025391 138.328125,491.03125" id="Path-205" stroke="#000000" stroke-width="13"></path>
            <path d="M684.136719,361 C663.377436,365.945107 649.649572,371.26835 642.953125,376.969727 C632.322877,386.020355 623.820312,398.690715 623.820312,414.969727 C623.820312,462.461642 660.878906,475.995117 684.136719,477.000977" id="Path-205-Copy" stroke="#000000" stroke-width="13" transform="translate(653.978516, 419.000488) scale(-1, 1) translate(-653.978516, -419.000488) "></path>
            <path d="" id="Path-209" stroke="#979797"></path>
        </g>
    </g>
</svg>