<?xml version="1.0" encoding="UTF-8"?>
<svg width="1257px" height="1100px" viewBox="0 0 1257 1100" version="1.1" xmlns="http://www.w3.org/2000/svg" xmlns:xlink="http://www.w3.org/1999/xlink">
    <!-- Generator: Sketch 52.5 (67469) - http://www.bohemiancoding.com/sketch -->
    <title>all</title>
    <desc>Created with Sketch.</desc>
    <g id="Page-1" stroke="none" stroke-width="1" fill="none" fill-rule="evenodd">
        <g id="Services" transform="translate(-119.000000, -128.000000)">
            <g id="all" transform="translate(121.000000, 128.000000)">
                <g id="bottom-lines" transform="translate(158.000000, 1035.000000)">
                    <rect id="Rectangle" fill="#D99AFF" x="0" y="0" width="26" height="4"></rect>
                    <rect id="Rectangle-Copy-6" fill="#D99AFF" x="91" y="31" width="30" height="3"></rect>
                    <rect id="Rectangle-Copy-9" fill="#D99AFF" x="798" y="31" width="54" height="3"></rect>
                    <rect id="Rectangle-Copy-10" fill="#D99AFF" x="181" y="62" width="38" height="3"></rect>
                    <rect id="Rectangle-Copy-11" fill="#D99AFF" x="275" y="62" width="138" height="3"></rect>
                    <rect id="Rectangle-Copy-12" fill="#D99AFF" x="482" y="62" width="252" height="3"></rect>
                    <rect id="Rectangle-Copy-8" fill="#D99AFF" x="600" y="31" width="180" height="3"></rect>
                    <rect id="Rectangle-Copy-7" fill="#D99AFF" x="133" y="31" width="404" height="3"></rect>
                    <rect id="Rectangle-Copy" fill="#D99AFF" x="45" y="0" width="1052" height="4"></rect>
                    <rect id="Rectangle-Copy-2" fill="#570081" x="274" y="0" width="26" height="4"></rect>
                    <rect id="Rectangle-Copy-4" fill="#570081" x="903" y="0" width="86" height="4"></rect>
                    <rect id="Rectangle-Copy-5" fill="#570081" x="1016" y="0" width="18" height="4"></rect>
                    <rect id="Rectangle-Copy-3" fill="#570081" x="328" y="0" width="360" height="4"></rect>
                </g>
                <g id="left-round" transform="translate(60.000000, 299.000000)">
                    <path d="M224.829277,267.062986 L230.410156,249.277344 L167.878906,212.326172 L155.273316,224.751007 C136.998475,202.884243 126,174.726538 126,144 C126,74.4121215 182.412122,18 252,18 C321.587878,18 378,74.4121215 378,144 C378,213.587878 321.587878,270 252,270 C242.671607,270 233.579982,268.986278 224.829277,267.062986 Z" id="Combined-Shape" stroke="#FF7BA2" stroke-width="3"></path>
                    <circle id="Oval" fill="#FFFFFF" cx="252" cy="144" r="125"></circle>
                    <g id="outer" transform="translate(154.000000, 46.000000)">
                        <circle id="Oval" fill="#EFE0FB" cx="97" cy="97" r="97"></circle>
                        <path d="M85.0683594,155.813616 L85.0683594,148 L69.6289062,141.03125 L65.1957871,147.886663 C48.2614002,137.280294 37,118.455267 37,97 C37,63.862915 63.862915,37 97,37 C101.17994,37 105.260049,37.4274297 109.199003,38.2409657 L104.357422,48.9355453 L123.152344,53.3183594 L127.88388,45.5483758 C135.479028,50.1171767 141.979598,56.3201391 146.899067,63.670742 L140.060547,69 L140.060547,128 L146.261795,131.26237 C137.086728,144.429433 122.767697,153.744834 106.216797,156.29648 L106.216797,148 L95.0625,148 L95.0625,156.96931 C91.6516237,156.861103 88.3125846,156.468213 85.0683594,155.813616 Z" id="Combined-Shape" stroke="#9E00E8" stroke-width="3"></path>
                        <path d="M156.217749,87.2863925 L145.015625,89 L130.128906,133.30666 L73.6230469,144.321289 L72.1095019,151.609702 C51.3954166,142.153196 37,121.257713 37,97 C37,63.862915 63.862915,37 97,37 C104.362053,37 111.414417,38.3259356 117.931314,40.7520276 L109.316406,58 L127.482422,83.6328125 L151.053127,70.924891 C153.515145,76.0192384 155.278191,81.5145777 156.217749,87.2863925 Z" id="Combined-Shape" stroke="#570081" stroke-width="3"></path>
                        <path d="M97.5,156 C129.808658,156 156,128.808658 156,96.5 C156,64.1913421 129.808658,38 97.5,38 C65.1913421,38 39,64.1913421 39,96.5 C39,128.808658 65.1913421,156 97.5,156 Z" id="Oval" fill="#EFE0FB"></path>
                    </g>
                    <g id="inner" transform="translate(222.000000, 114.000000)">
                        <path d="M13.2354142,5.88488115 L45.7378049,55.1328292 C41.0804347,58.2091336 35.499357,60 29.5,60 C13.2075999,60 -1.3500312e-13,46.7924001 -1.3500312e-13,30.5 C-1.3500312e-13,20.2184605 5.25981015,11.1654154 13.2354142,5.88488115 Z" id="Combined-Shape" stroke="#FF0D97" stroke-width="3" fill="#EFE0FB"></path>
                        <path d="M24.861617,0.628540232 C26.8431213,0.216537561 28.8962731,-3.55271368e-15 31,-3.55271368e-15 C41.3809801,-3.55271368e-15 50.5304603,5.27267798 55.9164502,13.2860436 L49.9433594,20.1807349 L28.4414063,21 L24.861617,0.628540232 Z" id="Combined-Shape" stroke="#D99AFF" stroke-width="3" fill="#D8D8D8"></path>
                        <circle id="Oval" fill="#EFE0FB" cx="31.5" cy="29.5" r="28.5"></circle>
                    </g>
                    <path d="M231.560059,176.063477 L220.436035,192.99" id="Path-134" stroke="#E6BEFF" stroke-width="3"></path>
                    <path d="M218.683594,195.676758 L144.277344,312.951172" id="Path-135" stroke="#E6BEFF" stroke-width="3"></path>
                    <path d="" id="Path-136" stroke="#979797"></path>
                    <path d="M224.782227,128.512695 L200.223633,115" id="Path-138" stroke="#D99AFF" stroke-width="3"></path>
                    <path d="M196.838867,112.847656 L0.360839844,0" id="Path-139" stroke="#D99AFF" stroke-width="3"></path>
                    <path d="M252.640625,81.5722656 L252.640625,32.3017578" id="Path-140" stroke="#D99AFF" stroke-width="3"></path>
                </g>
                <g id="top-round" transform="translate(764.000000, 5.000000)">
                    <circle id="Oval-Copy-3" stroke="#FF5998" stroke-width="3" cx="141" cy="139" r="125"></circle>
                    <path d="M250.023438,97 L263.646484,90.9273808 L256.834961,42.5488281 C224.223633,22.374349 204.93099,12.2871094 198.957031,12.2871094 C189.996094,12.2871094 132.180664,0.322265625 128,0.322265625 C125.212891,0.322265625 107.695964,4.31054688 75.4492188,12.2871094 C48.3333333,32.4615885 34.7753906,42.5488281 34.7753906,42.5488281 C34.7753906,42.5488281 28.4785156,56.6992188 15.8847656,85 L0.70703125,126 L10.0742188,186.328125 L27.0751953,226.292969 L62.7421875,245 L104.810547,268.271484 L144.62793,270.410624 L210.894531,260 L246,239.951172 L256.834961,215 L239.001953,207.514644 L253,115.676367 L278.226562,108 L273.289062,97.7851563 L253,104 L250.023438,97 Z" id="Path-2" fill="#FFFFFF"></path>
                    <path d="M255.05538,87.7740662 L247.894531,90.9273808 L255.025391,123.361328 L255.025391,170.019531 L235.15625,207.514644 L241.207344,213.73542 C218.414681,244.247025 182.014118,264 141,264 C71.9644063,264 16,208.035594 16,139 C16,69.9644063 71.9644063,14 141,14 C191.78218,14 235.491557,44.2822719 255.05538,87.7740662 Z" id="Combined-Shape" stroke="#D99AFF" stroke-width="3"></path>
                    <polygon id="Path-184" fill="#FFFFFF" points="34.1269531 61.2480469 46.6894531 71.7456901 60.7304688 54.7734375 47.4287109 42.5488281"></polygon>
                    <polygon id="Path-185" fill="#FFFFFF" points="16.0527344 101 27.5292969 104 25.5644531 122 12.3203125 119.099609"></polygon>
                    <polygon id="Path-186" fill="#FFFFFF" points="37.4726562 226.232422 51.0097656 215 63.828125 226.292969 51.0097656 239.951172"></polygon>
                    <polygon id="Path-187" fill="#FFFFFF" points="117.685547 270.410624 122.476562 253.654297 111.885254 251.660156 105.565918 267.225098"></polygon>
                    <polygon id="Path-188" fill="#FFFFFF" points="217.285156 230 225.023438 239.951172 247.949219 215 238.998047 207.514644"></polygon>
                    <polygon id="Path-189" fill="#FFFFFF" points="237.443359 71.7456901 248.166016 66 262.669922 90.9273808 252.740234 97"></polygon>
                    <path d="M208.304688,207.98793 L255.621094,254.900391" id="Path-191" stroke="#D99AFF" stroke-width="3"></path>
                    <path d="M241.972656,90.9273808 L250.119141,86.0839844 L254.527344,97.7851563 L261.457031,126.001331 L261.457031,155.167969 L254.527344,176.898438 L250.119141,191.859375 L237.654297,211.432573 L228.566406,208.65625 L245.011719,165.572266 C245.011719,135.291927 245.011719,119.405859 245.011719,117.914063 C245.011719,116.422266 243.998698,107.426705 241.972656,90.9273808 Z" id="Path-192" fill="#FFFFFF"></path>
                    <circle id="Oval" fill="#FFE1DD" cx="140.5" cy="139.5" r="93.5"></circle>
                    <path d="M98.5265932,184.450091 C86.5111071,173.225526 79,157.239919 79,139.5 C79,110.187262 99.5075341,85.6643152 126.957958,79.4958036 L128.695313,84.3476562 L89.1210938,126 L102.830078,173.763672 L102.830078,179.761719 L98.5265932,184.450091 Z M168.02038,84.4860702 C188.169133,94.5850199 202,115.427324 202,139.5 C202,171.199526 178.016851,197.297487 147.205823,200.638615 C147.895549,193.477445 145.512488,180.933844 140.056641,163.007812 L137.134766,94.6806641 L168.02038,84.4860702 Z" id="Combined-Shape" stroke="#FF5998" stroke-width="3"></path>
                    <path d="M163.573924,82.4750379 C186.106318,91.6012102 202,113.694521 202,139.5 C202,172.393125 176.176748,199.254906 143.697266,200.918321 L143.697266,192.332031 L151.300781,189.515625 L172.806641,182.507324 L190.501953,157.007812 L187.335938,118.535156 L160.408203,90 L163.573924,82.4750379 Z" id="Combined-Shape" stroke="#D99AFF" stroke-width="3"></path>
                    <path d="M138.017578,78.0491869 C138.840992,78.0164988 139.668569,78 140.5,78 C145.165075,78 149.708834,78.5194192 154.076597,79.5035792 L152.986328,84.3925781 L138.017578,84.3925781 L138.017578,78.0491869 Z" id="Combined-Shape" stroke="#9E00E8" stroke-width="3"></path>
                    <circle id="Oval" fill="#FFE1DD" cx="140.5" cy="139.5" r="60.5"></circle>
                    <path d="M116.014296,159.640344 C111.630703,154.293206 109,147.45382 109,140 C109,122.879173 122.879173,109 140,109 C151.693122,109 161.874152,115.474035 167.154199,125.033214 L121.700195,155.518555 L116.014296,159.640344 Z" id="Combined-Shape" stroke="#D99AFF" stroke-width="3"></path>
                    <path d="M170.843759,136.868164 C170.947085,137.898081 171,138.942861 171,140 C171,152.221385 163.927794,162.790967 153.652636,167.839492 L150.746094,162.556641 L161.407227,150.399414 L164.94043,136.868164 L170.843759,136.868164 Z" id="Combined-Shape" stroke="#9E00E8" stroke-width="3"></path>
                    <circle id="Oval" fill="#FFE1DD" cx="140" cy="140" r="30"></circle>
                    <path d="M405.320312,140.26928 L233.870117,140.26928" id="Path-198" stroke="#D99AFF" stroke-width="3"></path>
                </g>
                <g id="shirt-lines" transform="translate(297.000000, 128.000000)">
                    <path d="M60.6494141,312 L60.6494141,339.3538 L186.40625,364 C195.376302,365.613281 205.514323,363.191732 216.820312,356.735352 C228.126302,350.278971 246.76888,340.367188 272.748047,327 C281.985026,405.064453 287.125326,458.887044 288.168945,488.467773 C289.212565,518.048503 295.727865,652.203776 307.714844,890.933594 L340.056641,890.933594 L340.056641,520.015625 C348.5216,521.571145 355.1466,522.232603 359.931641,522 C364.716681,521.767397 371.913296,520.434064 381.521484,518 L471.224609,890.933594 L504.210938,890.933594 L426.78418,479.469727 L426.78418,287.291992 L538.679688,205.544922 C547.385417,200.046224 553.408203,192.724935 556.748047,183.581055 C560.087891,174.437174 575.578451,136.288411 603.219727,69.1347656 L579.944336,53.9619141 L511.057617,158.480469 L397.12793,217.921875 L296.34082,228.423828 C289.605143,228.663046 280.818685,233.365103 269.981445,242.529999 C259.144206,251.694896 231.285807,274.851562 186.40625,312 L60.6494141,312 Z" id="Path-92" fill="#9E00E8"></path>
                    <path d="M66.3847656,339.3538 L100.582031,345" id="Path-95" stroke="#570081" stroke-width="3"></path>
                    <path d="M111.857422,348.214844 L183.044922,362.908203 C194.035807,364.710286 202.211589,364.260905 207.572266,361.560059 C212.932943,358.859212 234.113607,346.880208 271.114258,325.623047" id="Path-96" stroke="#570081" stroke-width="3"></path>
                    <polyline id="Path-97" stroke="#570081" stroke-width="3" points="91.7138672 314 186.800781 314 200.486328 302.087891"></polyline>
                    <path d="M215.457031,289.949219 L222.290039,284.0625" id="Path-98" stroke="#570081" stroke-width="3"></path>
                    <path d="M467.707031,182.558594 L477.074219,178.529297" id="Path-99" stroke="#570081" stroke-width="3"></path>
                    <polyline id="Path-100" stroke="#570081" stroke-width="3" points="494.075195 169.865234 512.224609 160.288086 549.806641 103.232422"></polyline>
                    <path d="M600.87207,68.8007812 L581.564453,116.951172" id="Path-101" stroke="#570081" stroke-width="3"></path>
                    <path d="M576.395508,127.921875 L553.189453,187.210938 C549.537109,193.386719 544.517578,198.750326 538.130859,203.301758 C531.744141,207.85319 500.663086,230.894857 444.887695,272.426758" id="Path-102" stroke="#570081" stroke-width="3"></path>
                    <path d="M435.134766,532.580078 L437.432617,545.421875" id="Path-103" stroke="#570081" stroke-width="3"></path>
                    <path d="M440.912109,564.310194 L452.209961,625" id="Path-104" stroke="#570081" stroke-width="3"></path>
                    <path d="M436.3125,737.956055 L472.399414,889.174805" id="Path-105" stroke="#570081" stroke-width="3"></path>
                    <path d="M337.845703,600 L337.845703,780.328125" id="Path-106" stroke="#570081" stroke-width="3"></path>
                    <path d="M337.645508,788.849609 L337.645508,799.661133" id="Path-107" stroke="#570081" stroke-width="3"></path>
                    <path d="M337.751953,816.645508 L337.751953,875.805664" id="Path-108" stroke="#570081" stroke-width="3"></path>
                    <polygon id="Path-109" fill="#570081" points="307.640625 889.148438 339.956543 889.148438 340.525391 907.834961 287.194336 907.834961 287.194336 901.807617"></polygon>
                    <polygon id="Path-110" fill="#570081" points="471.237305 890.928711 471.237305 907.610352 524.464844 907.610352 524.464844 901.512695 504.112305 890.928711"></polygon>
                    <polygon id="Path-123" fill="#FFFFFF" points="46.9990234 312 61.609375 312 61.065918 339.3538 48.4084473 337"></polygon>
                    <path d="M48.5996094,312 L48.5996094,337 L31.0087891,332.34668 L14.171875,330.450195 C1.78450521,326.944336 -2.4765625,319.65332 1.38867187,308.577148 C5.25390625,297.500977 15.7929687,296.641927 33.0058594,306 L42.3789062,312 L48.5996094,312 Z" id="Path-122" fill="#FF7BA2"></path>
                    <path d="M587.276855,43.3173828 L607.294434,57.0043945 L609.265625,52.1455078 L623.058594,23.0410156 C624.986328,8.89518229 619.731608,1.51855469 607.294434,0.911132813 C594.857259,0.303710938 589.532064,9.97167969 591.318848,29.9150391 L591.318848,39.2001953 L587.276855,43.3173828 Z" id="Path-124" fill="#FF7BA2"></path>
                    <polygon id="Path-125" fill="#FFFFFF" points="579.94873 54.0913086 603.100098 69.215332 607.314209 56.8771973 587.42334 43.1181641"></polygon>
                </g>
                <g id="tie" transform="translate(619.000000, 345.000000)">
                    <path d="M0.325195313,8 C9.96752496,39.1264797 17.1291461,62.1264797 21.8100586,77 C26.4909711,91.8735203 28.0669803,96.6371921 26.5380859,91.2910156 L37.5976562,17.7207031 L55.3447266,89.0771484 L64.2216797,51.3183594 L62.1806641,0.895184476 L0.325195313,8 Z" id="Path-93" fill="#FFFFFF"></path>
                    <polygon id="Path-94" fill="#570081" points="44.5703125 148.915039 21.8266602 77 36.7714844 13.5477008 55.4208984 88.8271484"></polygon>
                </g>
                <g id="bag" transform="translate(925.000000, 880.000000)">
                    <circle id="Oval" stroke="#570081" stroke-width="3" cx="93" cy="27" r="27"></circle>
                    <polygon id="Path-111" fill="#E6BEFF" points="0.2890625 26.6699219 0.2890625 155.71875 186.601562 155.71875 186.601562 26.6699219"></polygon>
                    <rect id="Rectangle" fill="#FFFFFF" x="69" y="92" width="29" height="16"></rect>
                    <rect id="Rectangle" fill="#570081" x="0" y="88" width="167" height="5"></rect>
                    <rect id="Rectangle" fill="#570081" x="166" y="27" width="21" height="129"></rect>
                </g>
                <g id="head" transform="translate(580.000000, 193.000000)">
                    <path d="M5.73242187,92 L10.0546875,109.789063 C12.2994792,115.527203 16.3414714,119.041979 22.1806641,120.333391 C28.0198568,121.624802 30.8479818,121.624802 30.6650391,120.333391 L36.7988281,120.333391 L30.6650391,94.5986328 L16.5615234,87.6621094 L10.0546875,87.6621094 L10.0546875,92 L5.73242187,92 Z" id="Path-114" fill="#570081"></path>
                    <path d="M16.2753906,87.9824219 L4.81835937,87.9824219 L2.6953125,76.8378906 C14.5394446,74.9553354 22.4473222,73.0093719 26.4189453,71 C30.3905684,68.9906281 32.5520267,65.8421906 32.9033203,61.5546875 L109.171875,47 L112.955078,69.0615234 L112.955078,82.410624 L101.983398,93 L46.6777344,104.865234 L16.2753906,87.9824219 Z" id="Path-115" fill="#9E00E8"></path>
                    <polygon id="Path-116" fill="#B635F2" points="65.7890625 53.4140625 49.1845703 106 69.171875 102 86.7939453 48.125"></polygon>
                    <polygon id="Path-117" fill="#D99AFF" points="85.0302734 49.4189453 100.527344 45.8769531 83.4208984 96.7832031 68.0205078 99.6914062"></polygon>
                    <path d="M24.9765625,99 L38.9238281,160.647685 L89.125,154.895184 L83.4492187,129.823842 C91.6315255,129.176387 97.9677885,126.476968 102.458008,121.725586 C104.674316,119.380371 107.181152,115.102539 108.057617,109.789063 C108.641927,106.246745 107.826823,99.6796875 105.612305,90.0878906 L51.3886719,102 C45.6178385,102.188151 41.4628906,100.068685 38.9238281,95.6416016 C36.3847656,91.2145182 35.1717122,89.3632813 35.284668,90.0878906 C35.215332,80.2851563 31.4200846,75.3837891 23.8989258,75.3837891 C19.2218085,75.3837891 15.9980983,78.6197947 14.7895508,82.410624 C14.2996252,83.9473649 14.2996252,86.5064538 14.7895508,90.0878906 C15.9221453,92.7830275 17.0764421,94.6342645 18.2524414,95.6416016 C19.4284407,96.6489386 21.6698144,97.7684048 24.9765625,99 Z" id="Path-112" fill="#FF7BA2"></path>
                    <path d="M76.8378906,102 L97.9638672,99 C98.0986328,105.478516 95.8935547,109.478516 91.3486328,111 C84.53125,113.282227 79.4492187,106.806619 78.1435547,104.865234 C77.273112,103.570978 76.8378906,102.6159 76.8378906,102 Z" id="Path-113" fill="#FFFFFF"></path>
                    <path d="M3.22753906,72 C0.173875318,57.6962465 -0.304314786,47.3629132 1.79296875,41 C3.89025229,34.6370868 9.83491374,28.3857847 19.6269531,22.2460938 C21.7888356,17.1029122 23.9294606,13.7643705 26.0488281,12.2304688 C28.1681956,10.696567 32.0584951,9.67019977 37.7197266,9.15136719 L73.6679688,0.874023438 C84.1959635,-0.642252604 91.0950521,1.35514323 94.3652344,6.86621094 C95.6712301,9.06713744 95.9399551,11.4594858 95.1714094,14.043256 C94.8747838,15.0404802 96.2383732,15.4122158 99.2621777,15.1584629 C104.093705,14.7530089 112.692383,21.3261719 112.692383,27.9667969 C112.692383,32.3938802 111.849935,36.7382812 110.165039,41 L104.944336,43 L30.3300781,60.2695312 L28.7021484,65.6542969 L9.05957031,72 L3.22753906,72 Z" id="Path-118" fill="#570081"></path>
                    <path d="M2.34277344,74 C13.6987981,72.7606415 21.3449569,71.176006 25.28125,69.2460938 C29.2175431,67.3161815 31.0053035,64.2754913 30.6445313,60.1240234 L108.240596,44.3027344" id="Path" stroke="#FFFFFF" stroke-width="5"></path>
                    <path d="M108.258789,41 L113.763672,68.8125" id="Path-119" stroke="#570081" stroke-width="3"></path>
                    <path d="M42.4824219,99 C46.3203125,100.425781 51.3333333,100.425781 57.5214844,99" id="Path-120" stroke="#570081" stroke-width="3"></path>
                    <path d="M63.7900391,97.8378906 L99.3378906,91.0878906 C106.663411,89.391276 111.176758,85.7858073 112.87793,80.2714844" id="Path-121" stroke="#570081" stroke-width="3"></path>
                </g>
                <g id="misc">
                    <circle id="Oval" fill="#EFE0FB" cx="47" cy="397" r="32"></circle>
                    <circle id="Oval" fill="#EFE0FB" cx="1151" cy="440" r="25"></circle>
                    <circle id="Oval" stroke="#D99AFF" stroke-width="3" cx="1088" cy="76" r="14"></circle>
                    <circle id="Oval" stroke="#D99AFF" stroke-width="3" cx="678" cy="129" r="8"></circle>
                    <circle id="Oval" stroke="#FF5998" stroke-width="3" cx="311.5" cy="103.5" r="9.5"></circle>
                    <polygon id="Path-141" stroke="#D99AFF" stroke-width="3" points="171.125 216.432573 157.871094 241 184.824219 240"></polygon>
                    <path d="M116.453125,543.980469 L183.923828,543.980469" id="Path-142" stroke="#D99AFF" stroke-width="3"></path>
                    <path d="M103.623047,557.417969 L124.830078,557.417969" id="Path-143" stroke="#D99AFF" stroke-width="3"></path>
                    <path d="M133.326172,557.875 L183.460938,557.875" id="Path-144" stroke="#D99AFF" stroke-width="3"></path>
                    <path d="M160.554688,567.966797 L182.705078,567.966797" id="Path-145" stroke="#D99AFF" stroke-width="3"></path>
                    <rect id="Rectangle" stroke="#D99AFF" stroke-width="3" x="372.5" y="63.5" width="52" height="16.333333"></rect>
                    <rect id="Rectangle-Copy-14" stroke="#D99AFF" stroke-width="3" x="372.5" y="99.5" width="52" height="16.333333"></rect>
                    <rect id="Rectangle-Copy-13" stroke="#D99AFF" stroke-width="3" x="372.5" y="63.5" width="16.333333" height="52"></rect>
                    <rect id="vRectangle-Copy-15" stroke="#D99AFF" stroke-width="3" x="408.5" y="63.5" width="16.333333" height="52"></rect>
                    <circle id="Oval" stroke="#FF7BA2" stroke-width="3" cx="460.5" cy="832.5" r="14.5"></circle>
                    <path d="M340.902344,737.955078 L340.902344,727" id="Path-146" stroke="#D99AFF" stroke-width="3"></path>
                    <path d="M357.163574,742.312262 L357.163574,731.357184" id="Path-146" stroke="#D99AFF" stroke-width="3" transform="translate(357.163574, 736.834723) rotate(30.000000) translate(-357.163574, -736.834723) "></path>
                    <path d="M369.067621,754.216309 L369.067621,743.26123" id="Path-146" stroke="#D99AFF" stroke-width="3" transform="translate(369.067621, 748.738770) rotate(60.000000) translate(-369.067621, -748.738770) "></path>
                    <path d="M373.424805,770.477539 L373.424805,759.522461" id="Path-146" stroke="#D99AFF" stroke-width="3" transform="translate(373.424805, 765.000000) rotate(90.000000) translate(-373.424805, -765.000000) "></path>
                    <path d="M369.067621,786.73877 L369.067621,775.783691" id="Path-146" stroke="#D99AFF" stroke-width="3" transform="translate(369.067621, 781.261230) rotate(120.000000) translate(-369.067621, -781.261230) "></path>
                    <path d="M357.163574,798.642816 L357.163574,787.687738" id="Path-146" stroke="#D99AFF" stroke-width="3" transform="translate(357.163574, 793.165277) rotate(150.000000) translate(-357.163574, -793.165277) "></path>
                    <path d="M340.902344,803 L340.902344,792.044922" id="Path-146" stroke="#D99AFF" stroke-width="3" transform="translate(340.902344, 797.522461) rotate(180.000000) translate(-340.902344, -797.522461) "></path>
                    <path d="M324.641113,798.642816 L324.641113,787.687738" id="Path-146" stroke="#D99AFF" stroke-width="3" transform="translate(324.641113, 793.165277) rotate(210.000000) translate(-324.641113, -793.165277) "></path>
                    <path d="M312.737066,786.73877 L312.737066,775.783691" id="Path-146" stroke="#D99AFF" stroke-width="3" transform="translate(312.737066, 781.261230) rotate(240.000000) translate(-312.737066, -781.261230) "></path>
                    <path d="M308.379883,770.477539 L308.379883,759.522461" id="Path-146" stroke="#D99AFF" stroke-width="3" transform="translate(308.379883, 765.000000) rotate(270.000000) translate(-308.379883, -765.000000) "></path>
                    <path d="M312.737066,754.216309 L312.737066,743.26123" id="Path-146" stroke="#D99AFF" stroke-width="3" transform="translate(312.737066, 748.738770) rotate(300.000000) translate(-312.737066, -748.738770) "></path>
                    <path d="M324.641113,742.312262 L324.641113,731.357184" id="Path-146" stroke="#D99AFF" stroke-width="3" transform="translate(324.641113, 736.834723) rotate(330.000000) translate(-324.641113, -736.834723) "></path>
                    <circle id="Oval" fill="#EFE0FB" cx="473" cy="214" r="25"></circle>
                    <path d="M468.378906,182.417969 L534.753906,182.417969" id="Path-147" stroke="#D99AFF" stroke-width="3"></path>
                    <path d="M467.871094,193.328125 L517.789062,193.328125" id="Path-149" stroke="#D99AFF" stroke-width="3"></path>
                    <path d="M528.886719,193.328125 L546.738281,193.328125" id="Path-150" stroke="#D99AFF" stroke-width="3"></path>
                    <path d="M468.113281,205.230469 L487.582031,205.230469" id="Path-151" stroke="#D99AFF" stroke-width="3"></path>
                    <circle id="Oval" stroke="#FF5998" stroke-width="3" cx="49" cy="291" r="13"></circle>
                    <circle id="Oval" stroke="#D99AFF" stroke-width="3" cx="7.5" cy="200.5" r="7.5"></circle>
                    <path d="M11.7578125,207.998047 L42.5756836,277.907227" id="Path-148" stroke="#D99AFF" stroke-width="3"></path>
                    <circle id="Oval" stroke="#D99AFF" stroke-width="3" cx="183" cy="644" r="13"></circle>
                    <path d="M190.723633,631.954102 L197.703125,620.625335" id="Path-152" stroke="#D99AFF" stroke-width="3"></path>
                    <path d="M197.334473,642.437988 L243.908691,639.50293" id="Path-153" stroke="#D99AFF" stroke-width="3"></path>
                    <path d="M265.429688,637.750977 L311.879395,635.18457" id="Path-154" stroke="#9E00E8" stroke-width="3"></path>
                    <circle id="Oval" fill="#EFE0FB" cx="441" cy="643" r="37"></circle>
                    <path d="M319.391602,634 L584.955078,615.670898" id="Path-155" stroke="#D99AFF" stroke-width="3"></path>
                    <rect id="Rectangle" stroke="#FF7BA2" stroke-width="3" x="1199.5" y="550.5" width="21" height="21"></rect>
                    <circle id="Oval" stroke="#FF7BA2" stroke-width="3" cx="800.5" cy="600.5" r="12.5"></circle>
                    <path d="M730.020508,605.234375 L786.368164,602.149414" id="Path-156" stroke="#D99AFF" stroke-width="3"></path>
                    <circle id="Oval" stroke="#D99AFF" stroke-width="3" cx="818" cy="508" r="12"></circle>
                    <path d="M815.161621,521 L803.27832,586.600098" id="Path-157" stroke="#D99AFF" stroke-width="3"></path>
                    <path d="M724.48291,459.15625 L806.071777,502" id="Path-158" stroke="#D99AFF" stroke-width="3"></path>
                    <circle id="Oval" fill="#EFE0FB" cx="972" cy="673" r="45"></circle>
                    <path d="M826.742187,518.075684 L962.957031,663.446777" id="Path-159" stroke="#D99AFF" stroke-width="3"></path>
                    <circle id="Oval" stroke="#D99AFF" stroke-width="3" cx="972" cy="673" r="13"></circle>
                    <path d="M1139.62451,593.749512 L984.764648,667.347656" id="Path-160" stroke="#D99AFF" stroke-width="3"></path>
                    <path d="M1148.95801,589 L1174.40088,576.434082" id="Path-161" stroke="#D99AFF" stroke-width="3"></path>
                    <path d="M1074.375,417.527344 L977.429199,659.809082" id="Path-162" stroke="#D99AFF" stroke-width="3"></path>
                    <circle id="Oval" stroke="#D99AFF" stroke-width="3" cx="1077.5" cy="409.5" r="8.5"></circle>
                    <path d="M1081.04004,400.977539 L1100.7998,351.692383" id="Path-163" stroke="#D99AFF" stroke-width="3"></path>
                    <path d="M827.133789,499.289062 L887.819336,438.291016" id="Path-164" stroke="#D99AFF" stroke-width="3"></path>
                    <path d="M908.62793,418.265625 L919.276367,407.625" id="Path-165" stroke="#D99AFF" stroke-width="3"></path>
                    <path d="M926.173828,399.885742 L1037.28906,289.880859" id="Path-166" stroke="#D99AFF" stroke-width="3"></path>
                    <path d="M1027.64648,268.383789 L1064.66113,305.5" id="Path-167" stroke="#D99AFF" stroke-width="3"></path>
                    <path d="M1054.62891,273.52832 L1165.07422,162.983398" id="Path-168" stroke="#D99AFF" stroke-width="3"></path>
                    <path d="M1126.07324,289.349609 L1141.09668,251.294922" id="Path-169" stroke="#D99AFF" stroke-width="3"></path>
                    <path d="M1144.24512,242.796875 L1178.35254,158.540039" id="Path-170" stroke="#D99AFF" stroke-width="3"></path>
                    <circle id="Oval" stroke="#FF5998" stroke-width="3" cx="1184" cy="145" r="13"></circle>
                    <polyline id="Path-171" stroke="#D99AFF" stroke-width="3" points="1080.77148 306.863281 1065.08496 306.863281 1065.08496 340 1138.08203 340"></polyline>
                    <polyline id="Path-172" stroke="#D99AFF" stroke-width="3" points="1099.46875 306.861328 1166.94141 306.861328 1166.94141 340 1159.18066 340"></polyline>
                    <path d="M1075.38965,317.274414 L1127.53223,317.274414" id="Path-173" stroke="#D99AFF" stroke-width="3"></path>
                    <path d="M1134.83008,317.489258 L1156.13379,317.489258" id="Path-174" stroke="#D99AFF" stroke-width="3"></path>
                    <path d="M1075.48926,328.855469 L1099.77441,328.855469" id="Path-175" stroke="#D99AFF" stroke-width="3"></path>
                    <path d="M298.532887,278.544593 C284.193401,273.108736 274,259.244766 274,243 C274,222.01318 291.01318,205 312,205 C332.98682,205 350,222.01318 350,243 C350,259.610337 339.342654,273.731518 324.492798,278.898704 L322.119141,268.383789 L299.614258,271.017578 L298.532887,278.544593 Z" id="Combined-Shape" stroke="#D99AFF" stroke-width="3"></path>
                    <circle id="Oval" fill="#FFFFFF" transform="translate(312.328548, 242.677543) rotate(-2.000000) translate(-312.328548, -242.677543) " cx="312.328548" cy="242.677543" r="36.5"></circle>
                    <path d="M311.705078,255.921875 L311.705078,306.537109" id="Path-176" stroke="#D99AFF" stroke-width="3"></path>
                    <path d="M333.205078,254.152344 L448.116211,313.333391" id="Path-177" stroke="#D99AFF" stroke-width="3"></path>
                    <path d="M454.46582,317.299805 L561.875977,373.792969" id="Path-178" stroke="#D99AFF" stroke-width="3"></path>
                    <circle id="Oval" stroke="#FF5998" stroke-width="3" cx="312" cy="242" r="13"></circle>
                    <circle id="Oval" fill="#EFE0FB" cx="588" cy="45" r="45"></circle>
                    <path d="M609.673828,51.4648438 L713.739258,85.1660156" id="Path-182" stroke="#D99AFF" stroke-width="3"></path>
                    <path d="M357.369141,209.451363 L507.458008,102" id="Path-180" stroke="#D99AFF" stroke-width="3"></path>
                    <circle id="Oval" stroke="#D99AFF" stroke-width="3" cx="515.5" cy="96.5" r="8.5"></circle>
                    <path d="M523.318359,91.1308594 L576.737305,52.9033203" id="Path-181" stroke="#D99AFF" stroke-width="3"></path>
                    <circle id="Oval" stroke="#FF5998" stroke-width="3" cx="587.5" cy="44.5" r="13.5"></circle>
                    <path d="M726.294922,88.7382812 L736.631348,91.9921875" id="Path-183" stroke="#D99AFF" stroke-width="3"></path>
                </g>
            </g>
        </g>
    </g>
</svg>